<svg width="213" height="47" viewBox="0 0 213 47" fill="none" xmlns="http://www.w3.org/2000/svg">
<g clip-path="url(#clip0_2208_2129)">
<path d="M20.6532 0L0.115106 11.5788L0 35.0799L20.4186 47.0011L40.8416 35.4201L40.9567 11.9223L20.6532 0ZM5.74431 15.0313L20.5315 6.66506L23.7863 8.54288L20.2498 10.5243L20.1928 10.5559L8.97385 16.9265L8.86751 28.7638L5.66538 26.9579L5.74212 15.0291L5.74431 15.0313ZM21.6859 11.0314L24.9395 9.20807L35.2113 15.1371L35.1039 31.9687L31.8755 33.7953V29.8532L31.9906 17.0465L21.687 11.0303L21.6859 11.0314ZM30.8362 17.6975L30.7299 29.5184L20.3156 35.431L10.0109 29.4148L10.1172 17.5939L20.5326 11.6813L30.8373 17.6975H30.8362ZM5.6599 28.2665L9.14815 30.2338L20.3079 36.7494L30.7277 30.8335V34.4441L20.3156 40.3349L5.63798 31.8629L5.661 28.2665H5.6599ZM1.14996 34.4278L1.25958 12.2451L4.69521 10.3084L4.60641 14.3617L4.60203 14.3639L4.48583 32.5172L19.1799 40.9991L15.8144 42.9892L1.14996 34.4278ZM39.6993 34.7549L20.4274 45.6816L16.9435 43.6478L20.6401 41.4625L36.244 32.635L36.3514 15.7968L39.7816 17.7782L39.6982 34.756L39.6993 34.7549ZM39.7892 16.462L36.3613 14.4817L20.5381 5.34884L5.76733 13.7042L5.85613 9.65408L20.6412 1.3184L39.8079 12.5711L39.7881 16.462H39.7892Z" fill="url(#paint0_linear_2208_2129)"/>
<path d="M62.5088 16.4794V18.2973C62.5088 18.7934 62.6754 19.4543 62.6754 19.9504L61.8434 20.1162C61.6768 19.1249 61.178 18.2984 60.3448 17.8022C59.5128 17.306 58.513 16.9756 57.1822 16.9756C55.3514 16.9756 54.0195 17.4718 53.1864 18.6288C52.1877 19.62 51.6878 21.2732 51.6878 23.091C51.6878 25.2393 52.1877 26.8925 53.353 28.2142C54.5183 29.5369 55.8502 30.1978 57.6809 30.1978C58.8463 30.1978 59.6783 29.8673 60.5114 29.3712C61.3435 28.875 62.01 28.0495 62.3422 27.2229L63.0076 27.5533C62.841 28.0495 62.5077 28.5446 62.3422 28.875C62.1755 29.3712 62.0089 29.8662 61.8423 30.3624C61.0102 30.6928 60.3437 31.0233 59.5117 31.189C58.6796 31.3548 57.8465 31.5194 57.1811 31.5194C54.8505 31.5194 53.0197 30.8586 51.5212 29.3712C50.0226 27.8837 49.3572 26.0659 49.3572 23.7519C49.3572 21.4379 50.1892 19.62 51.6878 18.1326C53.1864 16.6452 55.1837 15.9843 57.6809 15.9843C58.3464 15.9843 59.1795 15.9843 60.0116 16.1501C60.8436 15.9843 61.6768 16.1501 62.5088 16.4805V16.4794ZM73.4964 15.6528C74.4951 15.6528 75.4938 15.8186 76.3258 16.149C77.1579 16.4794 77.991 16.9756 78.6565 17.6364C79.4885 18.463 80.155 19.2896 80.4883 20.2809C80.9882 21.2721 81.1537 22.4291 81.1537 23.5861C81.1537 24.7431 80.9871 25.9001 80.4883 26.8914C79.9884 27.8826 79.323 28.875 78.4909 29.5358C77.8255 30.1967 76.9924 30.5271 76.1603 31.0232C75.3283 31.3537 74.3296 31.5194 73.4964 31.5194C72.3311 31.5194 71.3325 31.3537 70.3338 30.8586C69.3351 30.5282 68.5031 29.8673 67.8365 29.0407C67.1711 28.3799 66.6712 27.3876 66.338 26.561C66.0047 25.5697 65.8381 24.7431 65.8381 23.5861C65.8381 22.4291 66.0047 21.4379 66.5035 20.4455C67.0034 19.4543 67.5022 18.6277 68.3353 17.8011C69.0008 17.1403 69.8339 16.6441 70.8326 16.3137C71.8313 15.9833 72.4978 15.6528 73.4964 15.6528ZM78.8231 23.7519C78.8231 21.7683 78.3232 20.1162 77.1579 18.7934C76.1592 17.4718 74.8273 16.8098 73.1621 16.8098C71.6635 16.8098 70.3316 17.306 69.4995 18.463C68.6675 19.62 68.1676 21.1074 68.1676 22.9253C68.1676 25.0736 68.6675 26.7267 69.8328 28.0495C70.8315 29.3712 72.1634 30.0331 73.8286 30.0331C75.3272 30.0331 76.6591 29.5369 77.4912 28.3799C78.3232 27.2229 78.8231 25.7355 78.8231 23.7519ZM83.9842 15.9833C84.8162 15.9833 85.3161 15.9832 85.6494 16.149H89.3119V16.8098H88.9787C88.4799 16.8098 87.98 16.9756 87.8134 17.306C87.6467 17.6364 87.4801 18.6288 87.4801 19.9504V29.7016H89.6441C91.4748 29.7016 92.8068 29.5358 93.3067 29.2054C93.8054 28.875 94.3053 28.2142 94.6386 27.2218L95.4706 27.3876C95.304 28.0484 95.1374 28.5446 94.9718 29.2054C94.8052 29.8662 94.6386 30.3624 94.472 31.0232H83.8176V30.3624H84.1508C85.1495 30.3624 85.6494 29.0407 85.6494 26.3952V19.9494C85.6494 18.6277 85.4828 17.8011 85.3161 17.4707C85.1495 17.1403 84.6507 16.8098 84.1508 16.8098H83.9842V15.9833ZM97.1347 15.9833C97.9668 15.9833 98.4667 15.9832 98.7999 16.149H102.462V16.8098H102.129C101.63 16.8098 101.131 16.9756 100.964 17.306C100.797 17.6364 100.631 18.6288 100.631 19.9504V29.7016H102.795C104.625 29.7016 105.957 29.5358 106.457 29.2054C106.956 28.875 107.456 28.2142 107.789 27.2218L108.621 27.3876C108.455 28.0484 108.289 28.5446 108.122 29.2054C107.956 29.8662 107.79 30.3624 107.624 31.0232H96.9692V30.3624H97.3025C98.3011 30.3624 98.7999 29.0407 98.7999 26.3952V19.9494C98.7999 18.6277 98.6333 17.8011 98.4667 17.4707C98.3 17.1403 97.8013 16.8098 97.3014 16.8098H97.1347V15.9833ZM110.286 15.9833C111.452 15.9833 112.617 15.9832 113.616 16.149C114.615 16.3148 115.446 16.149 116.113 16.149H118.443C119.276 16.149 120.109 16.149 120.94 15.9833V17.6364C120.94 18.1326 120.94 18.7934 121.106 19.2896H120.44C120.44 18.463 120.108 17.8022 119.608 17.6364C119.108 17.306 118.109 17.1403 116.611 17.1403H113.947V22.5949H117.109C118.108 22.5949 118.775 22.4291 119.107 22.2645C119.44 22.0987 119.607 21.7683 119.607 21.2732H120.272C120.272 21.7694 120.105 22.0998 120.105 22.4302V25.0746H119.439V24.9089C119.439 24.2481 119.272 23.9176 118.94 23.7519C118.607 23.5861 117.775 23.4215 116.444 23.4215H113.78V29.5369C114.112 29.5369 114.612 29.5369 114.945 29.7027H116.444C118.275 29.7027 119.44 29.5369 119.939 29.2065C120.438 28.8761 120.937 28.2152 121.271 27.2229L122.103 27.5533C121.936 28.2142 121.77 28.7103 121.604 29.2065C121.437 29.7027 121.271 30.3635 121.105 30.8597C119.94 30.8597 118.941 30.8597 117.943 30.6939C116.944 30.5282 116.112 30.6939 115.445 30.6939C114.447 30.6939 112.783 30.6939 110.451 30.8597H110.119V30.1988H110.451C111.451 30.1988 111.783 28.8761 111.949 26.2316V18.2984C111.949 17.6375 111.783 17.3071 111.616 16.9767C111.449 16.6463 110.951 16.6463 110.451 16.6463H110.284V15.9854L110.286 15.9833ZM137.754 16.4794V18.2973C137.754 18.7934 137.92 19.4543 137.92 19.9504L137.088 20.1162C136.922 19.1249 136.422 18.2984 135.591 17.8022C134.759 17.306 133.759 16.9756 132.428 16.9756C130.598 16.9756 129.266 17.4718 128.432 18.6288C127.434 19.62 126.935 21.2732 126.935 23.091C126.935 25.2393 127.434 26.8925 128.599 28.2142C129.764 29.5369 131.096 30.1978 132.928 30.1978C134.093 30.1978 134.926 29.8673 135.758 29.3712C136.59 28.875 137.255 28.0495 137.588 27.2229L138.254 27.5533C138.087 28.0495 137.755 28.5446 137.588 28.875C137.422 29.3712 137.255 29.8662 137.09 30.3624C136.257 30.6928 135.592 31.0233 134.759 31.189C133.927 31.3548 133.094 31.5194 132.428 31.5194C130.097 31.5194 128.266 30.8586 126.767 29.3712C125.27 27.8837 124.603 26.0659 124.603 23.7519C124.603 21.4379 125.435 19.62 126.935 18.1326C128.432 16.6452 130.43 15.9843 132.928 15.9843C133.594 15.9843 134.426 15.9843 135.259 16.1501C136.091 15.9843 136.756 16.1501 137.755 16.4805L137.754 16.4794ZM143.415 30.1978H143.747C144.246 30.1978 144.579 30.1978 144.747 30.032C144.913 29.8662 145.079 29.7016 145.246 29.3712C145.246 29.2054 145.412 28.3799 145.412 27.0571V17.4707H143.248C142.25 17.4707 141.584 17.6364 141.084 17.9668C140.751 18.2973 140.418 18.7934 140.252 19.7847L139.753 19.2885C139.92 18.6277 139.92 18.1315 140.086 17.4707C140.252 16.8098 140.252 16.3137 140.252 15.8175C140.419 15.9833 140.918 15.9833 141.584 16.1479C142.25 16.1479 143.415 16.3137 144.913 16.3137H151.572C152.238 16.3137 152.572 16.1479 152.904 15.9833V17.9668C152.904 18.463 153.071 18.9581 153.071 19.4543L152.404 19.62C152.237 18.7934 152.072 18.2984 151.739 17.9668C151.405 17.6364 150.573 17.4707 149.575 17.4707H147.577V28.0484C147.577 28.875 147.744 29.5358 147.744 29.7016C147.911 30.032 147.911 30.1978 148.243 30.1978C148.575 30.1978 148.741 30.3635 149.241 30.3635H149.575V31.0243H143.581V30.1978H143.415ZM173.38 30.3635H173.713C174.212 30.3635 174.711 30.1978 174.878 29.8673C175.045 29.5369 175.21 28.7103 175.21 27.3887V18.2984C175.21 17.6375 175.044 17.3071 174.878 17.1413C174.711 16.9756 174.212 16.8109 173.713 16.8109H173.546V16.1501H179.539C181.037 16.1501 182.369 16.4805 183.202 17.3071C184.034 18.1337 184.534 19.1249 184.534 20.282C184.534 21.7694 184.035 22.9264 183.035 23.753C182.037 24.5796 180.539 24.91 178.707 24.91H178.041C177.709 24.91 177.375 24.91 176.875 24.7442V27.8848C176.875 29.0418 177.042 29.7027 177.209 29.8684C177.375 30.1988 177.874 30.3646 178.541 30.3646H178.873V31.0254H173.047V30.3646H173.38V30.3635ZM177.209 23.7519C177.541 23.7519 177.707 23.7519 178.041 23.9176C178.374 24.0834 178.541 23.9176 178.707 23.9176C180.039 23.9176 181.038 23.5872 181.703 23.091C182.37 22.4302 182.703 21.6036 182.703 20.4466C182.703 19.4554 182.37 18.6288 181.703 17.9668C181.038 17.306 180.039 17.1403 178.874 17.1403H178.042C177.71 17.1403 177.543 17.1403 177.21 17.306V23.7519H177.209ZM191.691 15.9833H193.522C194.522 18.7934 195.353 21.2721 196.186 23.5861C197.018 25.9001 197.683 27.5533 198.184 28.7092C198.516 29.3701 198.683 29.7005 198.85 29.8662C199.016 30.032 199.348 30.032 199.682 30.032H199.848V30.6928H194.355V30.032H194.688C195.188 30.032 195.52 30.032 195.687 29.8662C195.854 29.7005 196.02 29.5358 196.02 29.2054V28.875C196.02 28.7092 196.02 28.5446 195.854 28.3788L194.688 25.404H189.195C188.696 26.7256 188.363 27.5522 188.196 28.2142C188.03 28.875 188.03 29.0407 188.03 29.3712C188.03 29.7016 188.196 30.032 188.363 30.032C188.53 30.032 188.862 30.1978 189.362 30.1978H189.695V30.8586H184.7V30.1978C185.199 30.1978 185.532 30.032 185.866 29.8673C186.198 29.7016 186.365 29.3712 186.698 28.8761C187.031 28.0495 187.863 26.3974 188.862 23.9176C189.528 21.6036 190.692 18.9592 191.691 15.9843V15.9833ZM192.19 17.9668L189.694 24.2481H194.188L192.19 17.9668ZM199.348 15.9833H204.508V16.6441H204.342C204.009 16.6441 203.676 16.6441 203.51 16.8098C203.343 16.8098 203.176 16.9756 203.176 17.1403C203.176 17.3049 203.343 17.6364 203.676 18.2973C203.843 18.463 203.843 18.6277 203.843 18.6277L206.339 23.09C207.504 21.2721 208.338 19.7847 209.003 18.7923C209.67 17.8011 209.835 17.1392 209.835 16.9745C209.835 16.8098 209.668 16.6441 209.502 16.6441C209.335 16.6441 209.003 16.4783 208.67 16.4783H208.503V15.8175H212.998V16.4783H212.664C211.999 16.4783 211.167 17.3049 210.168 18.7923C209.835 19.2885 209.67 19.6189 209.502 19.9494L206.839 23.9165V27.718C206.839 28.7092 207.006 29.3712 207.171 29.5358C207.338 29.7016 207.838 29.8662 208.503 29.8662H208.836V30.5271H202.843V29.8662H203.175C203.842 29.8662 204.175 29.7005 204.341 29.3701C204.507 29.0397 204.674 28.5435 204.674 27.5522V23.7508L201.178 17.9658C201.178 17.8 201.011 17.8 201.011 17.6353C200.345 16.6441 199.846 15.9822 199.346 15.9822L199.348 15.9833ZM165.72 18.2973C164.888 17.9668 164.223 17.6364 163.389 17.6364C162.224 17.6364 161.225 18.2973 161.225 19.2896C161.225 19.7858 161.392 20.2809 162.224 21.2732L166.22 26.5621C166.885 25.4051 167.219 24.0834 167.219 22.5949H168.051C168.051 24.7431 167.384 26.0659 166.719 27.2229L168.716 29.8673H167.551L166.22 28.0495C165.055 29.3712 163.723 30.0331 162.058 30.0331C159.395 30.0331 157.896 28.0495 157.896 26.2316C157.896 24.4138 159.228 23.091 161.559 21.934C160.727 20.777 160.227 20.1162 160.227 19.2896C160.227 17.8022 161.392 16.8098 163.389 16.8098C164.389 16.8098 165.055 16.9756 165.72 17.306V18.2973ZM165.553 27.3876L161.891 22.5949C159.56 23.9165 158.728 24.9089 158.728 26.2306C158.728 27.8837 160.226 29.3712 162.058 29.3712C163.389 29.3712 164.721 28.5446 165.553 27.3876Z" fill="url(#paint1_linear_2208_2129)"/>
</g>
<defs>
<linearGradient id="paint0_linear_2208_2129" x1="0" y1="23.4989" x2="40.9578" y2="23.5011" gradientUnits="userSpaceOnUse">
<stop stop-color="#E19F68"/>
<stop offset="0.5" stop-color="#FCD294"/>
<stop offset="0.58" stop-color="#F5B96C"/>
<stop offset="0.74" stop-color="#DD964C"/>
<stop offset="0.89" stop-color="#CF925D"/>
<stop offset="1" stop-color="#C4895B"/>
</linearGradient>
<linearGradient id="paint1_linear_2208_2129" x1="49.5907" y1="23.5774" x2="234.258" y2="23.6832" gradientUnits="userSpaceOnUse">
<stop stop-color="#E09A5E"/>
<stop offset="0.5" stop-color="#F9CE8A"/>
<stop offset="0.58" stop-color="#F1B462"/>
<stop offset="0.74" stop-color="#DB9043"/>
<stop offset="0.89" stop-color="#CF8D54"/>
<stop offset="1" stop-color="#C48453"/>
</linearGradient>
<clipPath id="clip0_2208_2129">
<rect width="213" height="47" fill="white"/>
</clipPath>
</defs>
</svg>
