<svg width="45" height="45" viewBox="0 0 45 45" fill="none" xmlns="http://www.w3.org/2000/svg">
<g clip-path="url(#clip0_2229_1271)">
<path d="M13.0116 20.8057H16.7872C17.1513 20.8057 17.4464 20.5105 17.4464 20.1465C17.4464 19.7824 17.1513 19.4873 16.7872 19.4873H13.0116C12.6475 19.4873 12.3524 19.7824 12.3524 20.1465C12.3524 20.5105 12.6475 20.8057 13.0116 20.8057Z" fill="#FBD193"/>
<path d="M13.0116 24.0002H28.3459C28.71 24.0002 29.0051 23.7051 29.0051 23.3411C29.0051 22.977 28.71 22.6819 28.3459 22.6819H13.0116C12.6475 22.6819 12.3524 22.977 12.3524 23.3411C12.3524 23.7051 12.6475 24.0002 13.0116 24.0002Z" fill="#FBD193"/>
<path d="M28.3458 25.8765H24.2578C23.8937 25.8765 23.5986 26.1716 23.5986 26.5356C23.5986 26.8997 23.8937 27.1948 24.2578 27.1948H28.3458C28.7099 27.1948 29.005 26.8997 29.005 26.5356C29.005 26.1716 28.7098 25.8765 28.3458 25.8765Z" fill="#FBD193"/>
<path d="M43.1434 4.42562L34.6111 0.161433C34.1805 -0.053811 33.6665 -0.053811 33.2359 0.161433L24.7035 4.42562C24.7034 4.42562 24.7034 4.42562 24.7034 4.42562C24.1789 4.6878 23.853 5.21497 23.853 5.80146V7.02815H14.5899C14.2258 7.02815 13.9307 7.32329 13.9307 7.68733C13.9307 8.05137 14.2258 8.34651 14.5899 8.34651H23.853V10.3512C23.853 11.3127 23.9251 12.2268 24.0693 13.098H13.0116C12.6474 13.098 12.3524 13.3931 12.3524 13.7571C12.3524 14.1212 12.6474 14.4163 13.0116 14.4163H24.3515C24.5243 15.0667 24.7428 15.6914 25.0067 16.2926H13.0116C12.6474 16.2926 12.3524 16.5878 12.3524 16.9518C12.3524 17.3158 12.6474 17.611 13.0116 17.611H25.6806C25.9121 18.0045 26.1657 18.3872 26.442 18.7599C26.624 19.0053 26.8163 19.2474 27.0197 19.4873H19.4239C19.0597 19.4873 18.7647 19.7824 18.7647 20.1464C18.7647 20.5105 19.0597 20.8056 19.4239 20.8056H28.2773C29.5201 21.9752 31.0908 23.1266 33.1191 24.3678C33.3671 24.5196 33.6452 24.5955 33.9234 24.5955C34.2015 24.5955 34.4796 24.5196 34.7277 24.3678C34.7952 24.3266 34.8613 24.2856 34.9276 24.2446V40.2525H17.6808V39.0234C17.6808 38.6594 17.3858 38.3642 17.0217 38.3642C16.6575 38.3642 16.3625 38.6594 16.3625 39.0234V43.4619C16.3625 43.583 16.2639 43.6816 16.1427 43.6816H2.54431C2.42311 43.6816 2.32458 43.583 2.32458 43.4619V33.9673C2.32458 33.8462 2.42311 33.7476 2.54431 33.7476H16.1427C16.2639 33.7476 16.3625 33.8462 16.3625 33.9673V35.9472C16.3625 36.3113 16.6575 36.6064 17.0217 36.6064C17.3858 36.6064 17.6808 36.3113 17.6808 35.9472V33.9673C17.6808 33.8349 17.6622 33.7069 17.6306 33.5842H28.3458C28.71 33.5842 29.005 33.2891 29.005 32.925C29.005 32.561 28.71 32.2659 28.3458 32.2659H15.5627V30.3896H28.3457C28.7099 30.3896 29.0049 30.0944 29.0049 29.7304C29.0049 29.3663 28.7099 29.0712 28.3457 29.0712H15.5351C15.4742 28.4107 15.3101 27.7798 15.0582 27.1949H21.8848C22.2489 27.1949 22.544 26.8998 22.544 26.5357C22.544 26.1717 22.2489 25.8766 21.8848 25.8766H14.2852C13.1478 24.3892 11.3562 23.4273 9.34353 23.4273C8.29104 23.4273 7.29937 23.691 6.42952 24.1544V8.34651H11.5137C11.8779 8.34651 12.1729 8.05137 12.1729 7.68733C12.1729 7.32329 11.8779 7.02815 11.5137 7.02815H6.20979C5.60396 7.02815 5.11116 7.52095 5.11116 8.12678V25.0953C3.89009 26.2316 3.12439 27.8509 3.12439 29.6465V32.4292H2.54431C1.69625 32.4292 1.00623 33.1192 1.00623 33.9672V43.4619C1.00623 44.31 1.69625 45 2.54431 45H16.1427C16.9908 45 17.6808 44.31 17.6808 43.4619V41.5708H35.1474C35.7533 41.5708 36.2461 41.078 36.2461 40.4721V23.3978C38.5924 21.8276 40.2169 20.362 41.4048 18.7599C43.1469 16.4106 43.9938 13.66 43.9938 10.3513V5.80146C43.9939 5.21506 43.668 4.68789 43.1434 4.42562ZM11.6077 32.4292H7.07947V29.6465C7.07947 28.3981 8.09522 27.3824 9.34362 27.3824C10.592 27.3824 11.6078 28.3981 11.6078 29.6465V32.4292H11.6077ZM4.44275 29.6465C4.44275 26.9442 6.64133 24.7457 9.34362 24.7457C12.0459 24.7457 14.2444 26.9442 14.2444 29.6465V32.4292H12.9261V29.6465C12.9261 27.6711 11.319 26.064 9.34362 26.064C7.36819 26.064 5.76111 27.6711 5.76111 29.6465V32.4292H4.44275V29.6465ZM42.6755 10.3513C42.6755 16.6861 39.3712 19.9808 34.0397 23.2433C33.9689 23.2866 33.8777 23.2865 33.8072 23.2433C28.4756 19.9807 25.1713 16.6861 25.1713 10.3513V5.80146C25.1713 5.71762 25.2179 5.64229 25.2929 5.60485L33.8252 1.34057C33.8866 1.30981 33.96 1.30981 34.0216 1.34057L42.5539 5.60476C42.6288 5.6422 42.6754 5.71753 42.6754 5.80138V10.3513H42.6755Z" fill="#FBD193"/>
<path d="M33.8838 4.58179C30.2056 4.58179 27.2133 7.5742 27.2133 11.2523C27.2133 14.9305 30.2057 17.9229 33.8838 17.9229C36.6978 17.9229 39.2232 16.1422 40.1678 13.4919C40.2901 13.149 40.1111 12.7719 39.7683 12.6496C39.4254 12.5274 39.0483 12.7063 38.926 13.0492C38.1679 15.1757 36.1416 16.6044 33.8838 16.6044C30.9326 16.6044 28.5316 14.2034 28.5316 11.2522C28.5316 8.30105 30.9326 5.90006 33.8838 5.90006C36.4822 5.90006 38.6977 7.75464 39.1515 10.3097C39.2152 10.6681 39.5576 10.9075 39.9158 10.8435C40.2742 10.7798 40.5132 10.4376 40.4496 10.0792C39.8837 6.89375 37.1225 4.58179 33.8838 4.58179Z" fill="#FBD193"/>
<path d="M36.1703 9.44838L33.5731 12.0456L32.0628 10.5353C31.8054 10.2779 31.3881 10.2778 31.1306 10.5353C30.8731 10.7928 30.8731 11.2101 31.1306 11.4675L33.1069 13.4439C33.2305 13.5675 33.3982 13.637 33.5731 13.637C33.748 13.637 33.9155 13.5675 34.0392 13.4439L37.1026 10.3805C37.36 10.1231 37.36 9.70572 37.1026 9.44838C36.8451 9.19104 36.4278 9.19104 36.1703 9.44838Z" fill="#FBD193"/>
</g>
<defs>
<clipPath id="clip0_2229_1271">
<rect width="45" height="45" fill="white"/>
</clipPath>
</defs>
</svg>
