<svg width="45" height="45" viewBox="0 0 45 45" fill="none" xmlns="http://www.w3.org/2000/svg">
<path fill-rule="evenodd" clip-rule="evenodd" d="M2.60058 43C2.26889 43 2 42.7311 2 42.3994C2 42.0677 2.26889 41.7988 2.60058 41.7988H3.34386V31.3437C3.34386 30.7347 3.83767 30.241 4.44669 30.241H8.4638C9.07295 30.241 9.56656 30.7348 9.56656 31.3437V41.7988H11.1346V27.4418C11.1346 26.8327 11.6285 26.339 12.2375 26.339H16.2545C16.8637 26.339 17.3573 26.8329 17.3573 27.4418V41.7988H18.9253V19.6039C18.9253 18.9947 19.4194 18.5012 20.0283 18.5012H24.0453C24.6543 18.5012 25.1481 18.9949 25.1481 19.6039V41.7988H26.7159V23.5399C26.7159 22.931 27.2096 22.4371 27.8188 22.4371H28.4259C28.7576 22.4371 29.0265 22.706 29.0265 23.0377C29.0265 23.3694 28.7576 23.6383 28.4259 23.6383H27.9171V41.7988H31.7374V23.6383H31.2286C30.8969 23.6383 30.628 23.3694 30.628 23.0377C30.628 22.706 30.8969 22.4371 31.2286 22.4371H31.8358C32.4449 22.4371 32.9386 22.931 32.9386 23.5399V41.7988H34.5067V11.7793C34.5067 11.1703 35.0003 10.6764 35.6095 10.6764H39.6266C40.2358 10.6764 40.7294 11.1704 40.7294 11.7793V25.7987C40.7294 26.1304 40.4605 26.3993 40.1288 26.3993C39.7971 26.3993 39.5282 26.1304 39.5282 25.7987V11.8775H35.7079V41.7988H39.5282V28.6014C39.5282 28.2697 39.7971 28.0008 40.1288 28.0008C40.4605 28.0008 40.7294 28.2697 40.7294 28.6014V41.7988H41.4725C41.8042 41.7988 42.0731 42.0677 42.0731 42.3994C42.0731 42.7311 41.8042 43 41.4725 43H40.1288H35.1073H32.338H27.3165H24.5475H19.5259H16.7568H11.7352H2.60058ZM23.947 41.7988H20.1265V19.7024H23.947V41.7988ZM16.1562 41.7988H12.3357V27.5401H16.1562V41.7988ZM4.54503 41.7988V31.4421H8.36539V41.7988H4.54503ZM6.45539 26.4252C5.09806 26.4252 3.99772 25.3249 3.99772 23.9676C3.99772 22.6101 5.09808 21.5099 6.45539 21.5099C7.19961 21.5099 7.86657 21.8407 8.31726 22.3632L11.8457 20.596C11.8081 20.4252 11.7883 20.2477 11.7883 20.0655L11.7883 20.054L11.7883 20.0424C11.7883 18.685 12.8887 17.5848 14.246 17.5848C14.7121 17.5848 15.148 17.7145 15.5194 17.94L19.9276 13.5243C19.7062 13.1553 19.5789 12.7233 19.5789 12.2616C19.5789 10.9042 20.6793 9.80397 22.0366 9.80397C23.3939 9.80397 24.4943 10.9042 24.4943 12.2616C24.4943 12.4438 24.4745 12.6213 24.4369 12.7921L27.9655 14.5594C28.4162 14.0368 29.0832 13.706 29.8274 13.706C30.1152 13.706 30.3914 13.7555 30.6481 13.8464L35.7976 6.10907C35.4016 5.67277 35.1602 5.09347 35.1602 4.45776C35.1602 3.10031 36.2606 2.00008 37.618 2.00008C38.9752 2.00008 40.0756 3.10034 40.0756 4.45776C40.0756 5.81517 38.9752 6.91543 37.618 6.91543C37.3302 6.91543 37.0539 6.86596 36.7972 6.77507L31.6477 14.5124C32.0437 14.9487 32.2851 15.528 32.2851 16.1637C32.2851 17.5211 31.1847 18.6214 29.8274 18.6214C28.4701 18.6214 27.3696 17.5211 27.3696 16.1637C27.3696 15.9815 27.3895 15.804 27.4271 15.6331L23.8986 13.8659C23.4479 14.3885 22.7809 14.7193 22.0366 14.7193C21.5765 14.7193 21.1459 14.5929 20.7777 14.3729L16.3637 18.7944C16.5797 19.1602 16.7036 19.5868 16.7036 20.0424L16.7036 20.0453L16.7037 20.0655C16.7037 21.423 15.6033 22.5232 14.2461 22.5232C13.5018 22.5232 12.8348 22.1924 12.3841 21.6698L8.85565 23.437C8.89325 23.6078 8.91307 23.7854 8.91307 23.9676C8.91307 25.3249 7.81273 26.4252 6.45539 26.4252ZM7.58629 23.4193C7.66676 23.5849 7.7119 23.771 7.7119 23.9676C7.7119 24.6615 7.14934 25.2241 6.45539 25.2241C5.76145 25.2241 5.19889 24.6615 5.19889 23.9676C5.19889 23.2736 5.76143 22.7111 6.45539 22.7111C6.94136 22.7111 7.36287 22.9869 7.5719 23.3906L7.57879 23.4048L7.58629 23.4193ZM21.1491 13.1508L21.1392 13.1412C20.917 12.9145 20.78 12.6041 20.78 12.2616C20.78 11.5676 21.3426 11.0051 22.0366 11.0051C22.7306 11.0051 23.2931 11.5676 23.2931 12.2616C23.2931 12.4589 23.2477 12.6456 23.1666 12.8118L23.1601 12.8243L23.1542 12.8365C22.9456 13.2413 22.5234 13.5181 22.0366 13.5181C21.695 13.5181 21.3852 13.3818 21.1587 13.1606L21.1491 13.1508ZM14.246 21.2989C13.5559 21.2989 12.9957 20.7426 12.9895 20.054C12.9957 19.3654 13.5558 18.809 14.2461 18.809C14.9346 18.809 15.4939 19.363 15.5025 20.0495C15.4986 20.7402 14.9376 21.2989 14.246 21.2989ZM28.7097 15.5889L28.7039 15.6009L28.6974 15.6134C28.6163 15.7796 28.5708 15.9663 28.5708 16.1637C28.5708 16.8577 29.1334 17.4202 29.8274 17.4202C30.5214 17.4202 31.0839 16.8577 31.0839 16.1637C31.0839 15.731 30.8653 15.3495 30.5325 15.1235L30.5235 15.1176L30.514 15.1112C30.3167 14.9822 30.0808 14.9072 29.8274 14.9072C29.3405 14.9072 28.9184 15.184 28.7097 15.5889ZM36.9219 5.50373L36.9095 5.4957C36.5786 5.26941 36.3614 4.88896 36.3614 4.45776C36.3614 3.76376 36.9239 3.20125 37.618 3.20125C38.3118 3.20125 38.8744 3.76373 38.8744 4.45776C38.8744 5.15178 38.3118 5.71426 37.618 5.71426C37.366 5.71426 37.1314 5.64012 36.9347 5.51247L36.9219 5.50373Z" fill="#FBD193"/>
</svg>
