<svg width="45" height="45" viewBox="0 0 45 45" fill="none" xmlns="http://www.w3.org/2000/svg">
<g clip-path="url(#clip0_2229_1047)">
<path d="M36.5194 39.1933L34.8392 34.1518C34.252 32.3918 32.7539 31.0926 30.9278 30.7601L26.0773 29.8776V29.5016C26.9214 29.0117 27.6559 28.3563 28.2409 27.5804H29.7063C30.9068 27.5804 31.8837 26.6035 31.8837 25.403V16.6933C31.8837 11.4907 27.6508 7.25781 22.4482 7.25781C17.2456 7.25781 13.0127 11.4907 13.0127 16.6933V21.7739C13.0127 23.1733 14.0078 24.344 15.3273 24.6169C15.7345 26.7029 17.0381 28.4681 18.8192 29.5016V29.8776L13.9679 30.7601C12.1425 31.0926 10.6437 32.3918 10.0573 34.1518L9.76693 35.0235L7.29483 32.5514C7.01177 32.2684 7.01177 31.8075 7.29483 31.5244L10.1618 28.6582L4.78064 23.2771L1.54064 26.5171C0.581121 27.4766 0.0527344 28.7526 0.0527344 30.1098C0.0527344 31.4671 0.581121 32.7423 1.54064 33.7018L11.3499 43.5111C12.3094 44.4706 13.5854 44.9997 14.9427 44.9997C16.2999 44.9997 17.5752 44.4706 18.5122 43.5329L22.0476 40.2936L20.9451 39.1933H36.5194ZM30.4321 25.403C30.4321 25.8036 30.1062 26.1288 29.7063 26.1288H29.0959C29.3064 25.649 29.466 25.1431 29.5691 24.6169C29.8798 24.5523 30.1657 24.4289 30.4321 24.2736V25.403ZM29.7063 23.0238V20.5241C30.1381 20.776 30.4321 21.239 30.4321 21.7739C30.4321 22.3089 30.1381 22.7719 29.7063 23.0238ZM15.1902 23.0238C14.7583 22.7719 14.4643 22.3089 14.4643 21.7739C14.4643 21.239 14.7583 20.776 15.1902 20.5241V23.0238ZM15.1902 18.1449V18.9738C14.9318 19.0413 14.6893 19.1429 14.4643 19.2743V16.6933C14.4643 12.2913 18.0462 8.70943 22.4482 8.70943C26.8502 8.70943 30.4321 12.2913 30.4321 16.6933V19.2743C30.2071 19.1429 29.9647 19.0406 29.7063 18.9738V18.1449H28.9805C26.8343 18.1449 24.8165 17.3088 23.2981 15.7911L22.4482 14.9412L21.5983 15.7911C20.0799 17.3088 18.0622 18.1449 15.916 18.1449H15.1902ZM16.6418 23.2256V19.5689C18.8214 19.4049 20.8536 18.5056 22.4482 16.9894C24.0428 18.5056 26.0751 19.4056 28.2547 19.5689V23.2256C28.2547 24.2838 27.9658 25.2738 27.4693 26.1288H22.4482V27.5804H26.2761C25.2527 28.4811 23.9151 29.032 22.4482 29.032C19.2467 29.032 16.6418 26.4271 16.6418 23.2256ZM24.6256 30.149V30.1831L22.4482 32.3606L20.2708 30.1831V30.149C20.9589 30.3653 21.6898 30.4836 22.4482 30.4836C23.2067 30.4836 23.9376 30.3653 24.6256 30.149ZM11.4334 34.6106C11.8522 33.3535 12.9227 32.4251 14.227 32.1871L19.3004 31.2653L22.4482 34.4131L25.5953 31.266L30.668 32.1878C31.9723 32.4259 33.0428 33.3535 33.4616 34.6113L34.506 37.7417H19.4935L16.6664 34.9147L13.5252 37.7562C13.2515 38.0313 12.7732 38.0313 12.4989 37.7562L10.9137 36.171L11.4334 34.6106ZM4.77991 25.3297L8.10846 28.6582L7.32023 29.4464L3.99169 26.1179L4.77991 25.3297ZM17.5069 42.4863C16.8218 43.17 15.9102 43.5481 14.9412 43.5481C13.9723 43.5481 13.0606 43.17 12.3748 42.4848L2.56548 32.6763C1.88031 31.9911 1.5029 31.0795 1.5029 30.1106C1.5029 29.1409 1.88031 28.2293 2.56548 27.5441L2.96467 27.1449L6.29322 30.4735L6.26709 30.4996C5.41862 31.3488 5.41862 32.73 6.26709 33.5792L11.4718 38.7839C11.8834 39.1947 12.4299 39.4219 13.012 39.4219C13.5941 39.4219 14.1406 39.1955 14.5253 38.8093L14.5798 38.7607L17.9235 42.1045L17.5069 42.4863ZM18.9948 41.1218L15.6583 37.7852L16.6171 36.9186L19.9478 40.2493L18.9948 41.1218Z" fill="#FBD193"/>
<path d="M42.7706 0H32.6093C31.4088 0 30.4319 0.976935 30.4319 2.17742V7.98387C30.4319 9.18435 31.4088 10.1613 32.6093 10.1613H34.5479L33.7974 14.5386L40.8015 10.1613H42.7706C43.9711 10.1613 44.948 9.18435 44.948 7.98387V2.17742C44.948 0.976935 43.9711 0 42.7706 0ZM43.4964 7.98387C43.4964 8.38379 43.1705 8.70968 42.7706 8.70968H40.3849L35.7753 11.5904L36.2695 8.70968H32.6093C32.2094 8.70968 31.8835 8.38379 31.8835 7.98387V2.17742C31.8835 1.7775 32.2094 1.45161 32.6093 1.45161H42.7706C43.1705 1.45161 43.4964 1.7775 43.4964 2.17742V7.98387Z" fill="#FBD193"/>
<path d="M42.0449 2.90332H33.3352V4.35493H42.0449V2.90332Z" fill="#FBD193"/>
<path d="M39.1417 5.80664H33.3352V7.25825H39.1417V5.80664Z" fill="#FBD193"/>
<path d="M42.0449 5.80664H40.5933V7.25825H42.0449V5.80664Z" fill="#FBD193"/>
<path d="M22.4482 2.17773C12.9648 2.17773 4.79587 8.73757 2.67216 17.8878L1.29676 15.595L0.052002 16.3418L2.60321 20.5929L6.85426 18.0417L6.10741 16.7969L4.14047 17.9771C6.19741 9.60636 13.7247 3.62935 22.4482 3.62935C24.3549 3.62935 26.2362 3.91241 28.0398 4.47128L28.4695 3.08499C26.5265 2.48257 24.5008 2.17773 22.4482 2.17773Z" fill="#FBD193"/>
<path d="M44.5953 16.0707L40.3443 13.5195L37.7938 17.7713L39.0386 18.5182L40.3087 16.401C40.9772 18.357 41.3191 20.4031 41.3191 22.4999C41.3191 26.8163 39.8239 31.0361 37.1101 34.3814L38.2373 35.2959C41.1608 31.693 42.7707 27.148 42.7707 22.4999C42.7707 20.2797 42.4128 18.1117 41.7153 16.0359L43.8485 17.3155L44.5953 16.0707Z" fill="#FBD193"/>
</g>
<defs>
<clipPath id="clip0_2229_1047">
<rect width="45" height="45" fill="white"/>
</clipPath>
</defs>
</svg>
