<svg width="45" height="45" viewBox="0 0 45 45" fill="none" xmlns="http://www.w3.org/2000/svg">
<path d="M29.0424 21.7172H23.2037C22.9573 20.6964 22.1525 19.8917 21.1318 19.6452V11.8489C21.1318 11.4847 20.8366 11.1895 20.4724 11.1895C20.108 11.1895 19.8129 11.4847 19.8129 11.8489V19.6452C18.5804 19.9428 17.6619 21.0541 17.6619 22.3767C17.6619 23.9263 18.9227 25.187 20.4724 25.187C21.7948 25.187 22.9062 24.2685 23.2037 23.036H29.0424C29.4066 23.036 29.7019 22.7408 29.7019 22.3766C29.7019 22.0124 29.4066 21.7172 29.0424 21.7172ZM20.4724 23.8682C19.6499 23.8682 18.9808 23.1991 18.9808 22.3767C18.9808 21.5542 19.6499 20.8851 20.4724 20.8851C21.2948 20.8851 21.964 21.5542 21.964 22.3767C21.9639 23.1991 21.2948 23.8682 20.4724 23.8682Z" fill="#FBD193"/>
<path d="M14.5341 20.3496H10.6618C10.0557 20.3496 9.56274 20.8426 9.56274 21.4487V23.3049C9.56274 23.911 10.0557 24.4039 10.6618 24.4039H14.5341C15.1402 24.4039 15.6332 23.911 15.6332 23.3049V21.4487C15.6332 20.8426 15.1402 20.3496 14.5341 20.3496ZM14.3143 23.0851H10.8816V21.6685H14.3143V23.0851Z" fill="#FBD193"/>
<path d="M40.3525 27.2788C40.7408 25.6981 40.9447 24.0548 40.9447 22.3767C40.9447 16.9083 38.8152 11.7672 34.9484 7.90048C31.0818 4.03372 25.9408 1.9043 20.4725 1.9043C15.0041 1.9043 9.86295 4.03381 5.99619 7.90057C2.12951 11.7672 0 16.9083 0 22.3767C0 27.8451 2.12951 32.9861 5.99619 36.8528C9.86295 40.7196 15.004 42.8491 20.4725 42.8491C20.4728 42.8491 20.4729 42.8491 20.4731 42.8491C21.9128 42.8491 23.351 42.6986 24.7474 42.4019C25.1037 42.3262 25.3311 41.976 25.2553 41.6198C25.1797 41.2635 24.8292 41.0363 24.4732 41.1118C23.1667 41.3895 21.821 41.5302 20.4731 41.5302C20.4729 41.5302 20.4726 41.5302 20.4724 41.5302C15.3562 41.5302 10.5463 39.5379 6.9288 35.9202C3.3112 32.3027 1.31889 27.4929 1.31889 22.3767C1.31889 17.2606 3.3112 12.4508 6.92888 8.83318C10.5465 5.21559 15.3564 3.22319 20.4725 3.22319C25.5885 3.22319 30.3984 5.21559 34.016 8.83318C37.6337 12.4508 39.626 17.2607 39.626 22.3767C39.626 23.8836 39.4499 25.3604 39.1146 26.7841C38.3384 26.5446 37.5142 26.4154 36.6605 26.4154C36.4555 26.4154 36.2524 26.4232 36.0511 26.4377C36.3898 25.1399 36.5709 23.7791 36.5709 22.3767C36.5709 20.9595 36.3864 19.5532 36.0228 18.1968C35.9286 17.845 35.5667 17.6366 35.2151 17.7307C34.8633 17.825 34.6545 18.1867 34.7489 18.5385C35.0262 19.5729 35.1883 20.6394 35.2358 21.7172H34.0066C33.6424 21.7172 33.3472 22.0124 33.3472 22.3767C33.3472 22.7409 33.6424 23.0361 34.0066 23.0361H35.2375C35.1821 24.2943 34.9676 25.5115 34.6153 26.6694C31.0023 27.5838 28.3208 30.8623 28.3208 34.7557C28.3208 34.802 28.3218 34.8479 28.3225 34.894C26.2211 36.2168 23.7651 37.0251 21.1321 37.1415V35.9108C21.1321 35.5466 20.8369 35.2514 20.4726 35.2514C20.1083 35.2514 19.8132 35.5466 19.8132 35.9108V37.141C16.2343 36.9831 12.9824 35.5469 10.5035 33.2783L11.3688 32.4131C11.6264 32.1556 11.6264 31.738 11.3689 31.4805C11.1113 31.2231 10.6937 31.223 10.4363 31.4804L9.57098 32.3457C7.19142 29.7456 5.72785 26.2948 5.69454 22.5086H6.75943C7.12374 22.5086 7.41888 22.2134 7.41888 21.8491C7.41888 21.4849 7.12374 21.1897 6.75943 21.1897H5.74033C6.00954 17.8192 7.41413 14.7641 9.5708 12.4077L10.4363 13.273C10.5651 13.4018 10.7338 13.4661 10.9025 13.4661C11.0714 13.4661 11.2401 13.4018 11.3689 13.2729C11.6264 13.0154 11.6264 12.5978 11.3688 12.3404L10.5034 11.4752C12.9821 9.20663 16.2342 7.77058 19.813 7.61255V8.84267C19.813 9.20689 20.1081 9.50212 20.4724 9.50212C20.8368 9.50212 21.1319 9.20689 21.1319 8.84267V7.61352C23.5129 7.71952 25.837 8.39645 27.8907 9.59071C28.809 10.1247 29.6649 10.7572 30.4452 11.4713L29.5762 12.3405C29.3187 12.598 29.3187 13.0156 29.5763 13.273C29.7051 13.4018 29.8738 13.4661 30.0425 13.4661C30.2114 13.4661 30.3801 13.4018 30.5089 13.2729L31.3774 12.4042C32.0597 13.1497 32.668 13.9639 33.1866 14.8364C33.3727 15.1496 33.7776 15.2524 34.0904 15.0663C34.4034 14.8802 34.5064 14.4755 34.3203 14.1625C32.9187 11.8045 30.9246 9.82934 28.5537 8.45059C26.1097 7.0294 23.3153 6.2781 20.4724 6.2781C11.5956 6.2781 4.37372 13.4998 4.37372 22.3766C4.37372 31.2533 11.5956 38.4751 20.4724 38.4751C23.3827 38.4751 26.1143 37.6979 28.4725 36.3415C28.6731 37.3796 29.0666 38.3495 29.6142 39.2126C29.0787 39.5032 28.5262 39.7706 27.9571 40.0125C27.622 40.155 27.4658 40.542 27.6081 40.8774C27.7504 41.2125 28.1375 41.3688 28.473 41.2264C29.142 40.942 29.7899 40.6245 30.4155 40.2771C31.9446 42.0048 34.1772 43.0961 36.6602 43.0961C38.2951 43.0961 39.8783 42.6229 41.2388 41.7275C41.543 41.5273 41.6274 41.1183 41.4272 40.8142C41.2269 40.5099 40.818 40.4256 40.5138 40.6258C39.3692 41.3789 38.0366 41.7772 36.6602 41.7772C32.789 41.7772 29.6394 38.6273 29.6394 34.7557C29.6394 30.884 32.7889 27.7342 36.6602 27.7342C40.5315 27.7342 43.6812 30.8841 43.6812 34.7557C43.6812 35.9881 43.3575 37.2002 42.7452 38.2607C42.563 38.5761 42.6712 38.9794 42.9865 39.1615C43.3019 39.3437 43.7052 39.2355 43.8873 38.9202C44.6152 37.6592 45 36.2192 45 34.7557C45.0002 31.482 43.104 28.6432 40.3525 27.2788Z" fill="#FBD193"/>
<path d="M41.3245 31.579C40.9405 31.2043 40.434 30.998 39.898 30.998C39.3434 30.998 38.8246 31.2165 38.4372 31.6135L35.6778 34.4404L34.5636 33.3035C34.1764 32.9084 33.6586 32.6908 33.1055 32.6908C32.5678 32.6908 32.0602 32.8982 31.6763 33.2747C30.8723 34.0626 30.8593 35.3579 31.6474 36.162L33.9 38.4604C34.3659 38.936 35.0148 39.2087 35.6803 39.2087H35.6819C35.6821 39.2087 35.6823 39.2087 35.6825 39.2087C36.3482 39.2081 36.9975 38.9342 37.4637 38.4569L41.3596 34.4664C42.1458 33.6605 42.13 32.3653 41.3245 31.579ZM40.4155 33.5452L36.52 37.5355C36.3002 37.7605 35.9945 37.8897 35.6811 37.8899H35.6802C35.3669 37.8899 35.0613 37.7614 34.8418 37.5374L32.5891 35.2389C32.3101 34.9542 32.3147 34.4956 32.5994 34.2164C32.7354 34.0831 32.915 34.0097 33.1053 34.0097C33.3011 34.0097 33.4845 34.0867 33.6215 34.2266L35.2076 35.845C35.3317 35.9715 35.5013 36.0428 35.6785 36.0428C35.6787 36.0428 35.6789 36.0428 35.6792 36.0428C35.8566 36.0426 36.0264 35.971 36.1504 35.844L39.3806 32.5346C39.5178 32.3942 39.7013 32.3169 39.8976 32.3169C40.0874 32.3169 40.2668 32.3899 40.4028 32.5227C40.6884 32.8013 40.6939 33.2599 40.4155 33.5452Z" fill="#FBD193"/>
</svg>
