<svg width="45" height="39" viewBox="0 0 45 39" fill="none" xmlns="http://www.w3.org/2000/svg">
<path fill-rule="evenodd" clip-rule="evenodd" d="M36.199 18.7229C36.199 24.6881 33.2442 30.2867 28.2412 33.6525L24.9171 35.9185C24.5477 36.1851 24.1112 36.3851 23.6747 36.5184C22.4156 36.8933 21.0679 36.741 19.9637 36.0615C21.0679 36.741 22.4156 36.8934 23.6748 36.5185C24.1113 36.3852 24.5478 36.1852 24.9171 35.9186L28.2413 33.6526C33.2443 30.2868 36.1991 24.6882 36.1991 18.723V8.19245L36.199 8.19236V18.7229ZM7.6604 9.22742C7.5753 9.14398 7.52416 9.02658 7.52416 8.89227V7.8925C7.52416 7.72589 7.62487 7.55924 7.79278 7.49259L22.1302 1.16091C22.231 1.09426 22.3653 1.09426 22.4996 1.16091L22.4995 1.16082C22.3652 1.09417 22.2309 1.09417 22.1301 1.16082L7.79269 7.4925C7.62477 7.55915 7.52406 7.7258 7.52406 7.8924V8.89217C7.52406 9.02654 7.57524 9.14398 7.6604 9.22742ZM36.837 7.4925L36.8371 7.49259C36.8622 7.50255 36.8858 7.51472 36.9077 7.52881C36.8857 7.51469 36.8621 7.50247 36.837 7.4925ZM37.1057 12.2246V12.2247H39.1203L39.1539 12.1248C39.3889 11.3916 40.094 10.8918 40.8663 10.8918C41.2299 10.8918 41.5673 10.9959 41.85 11.1761C41.5673 10.9959 41.2299 10.8917 40.8662 10.8917C40.0939 10.8917 39.3888 11.3915 39.1538 12.1247L39.1202 12.2246H37.1057ZM39.4119 13.7597C39.3007 13.6097 39.2126 13.441 39.1539 13.2578L39.1203 13.1578H39.1203L39.1538 13.2577C39.2125 13.441 39.3007 13.6097 39.4119 13.7597ZM37.1057 17.5899V17.59H39.9598L39.9933 17.49C40.2283 16.7569 40.9335 16.257 41.7058 16.257C42.0461 16.257 42.3519 16.3521 42.6077 16.5166C42.3519 16.352 42.046 16.2569 41.7057 16.2569C40.9334 16.2569 40.2282 16.7568 39.9932 17.4899L39.9597 17.5899H37.1057ZM40.1506 19.1583C40.0394 19.0083 39.9513 18.8396 39.8926 18.6564L39.859 18.5564H39.8589L39.8925 18.6563C39.9513 18.8396 40.0394 19.0083 40.1506 19.1583ZM36.5349 22.9885L36.5349 22.9886H39.0196L39.0532 22.8887C39.2882 22.1555 39.9933 21.6556 40.7656 21.6556C41.1216 21.6556 41.4524 21.7555 41.7314 21.9288C41.4524 21.7555 41.1215 21.6556 40.7655 21.6556C39.9932 21.6556 39.2881 22.1554 39.0531 22.8886L39.0195 22.9885H36.5349ZM39.3112 24.5236C39.2 24.3736 39.1119 24.2049 39.0532 24.0217L39.0196 23.9217H39.0195L39.0531 24.0216C39.1118 24.2049 39.2 24.3736 39.3112 24.5236ZM8.26278 24.0216C9.03926 26.6667 10.3797 29.1036 12.1694 31.1695C10.3798 29.1036 9.03934 26.6668 8.26288 24.0217L8.22927 23.8884H8.2292L8.26278 24.0216ZM2.46769 24.685C2.1471 24.361 1.95036 23.9158 1.95036 23.4218C1.95036 22.4221 2.7562 21.6223 3.76351 21.6223C4.2537 21.6223 4.71684 21.8237 5.04989 22.1583C4.71684 21.8236 4.25365 21.6222 3.76342 21.6222C2.7561 21.6222 1.95026 22.422 1.95026 23.4217C1.95026 23.9158 2.14705 24.361 2.46769 24.685ZM5.5095 22.9552L5.50953 22.9553H7.99425L7.96065 22.7554C7.65847 21.4223 7.52416 20.0894 7.52416 18.723V18.5231H7.52406V18.7229C7.52406 20.0893 7.65838 21.4222 7.96055 22.7553L7.99416 22.9552H5.5095ZM1.62825 19.3197C1.30767 18.9957 1.11092 18.5506 1.11092 18.0566C1.11092 17.0568 1.91676 16.257 2.92408 16.257C3.41125 16.257 3.87171 16.4559 4.20429 16.7869C3.8717 16.4559 3.41121 16.2569 2.92399 16.2569C1.91667 16.2569 1.11083 17.0567 1.11083 18.0565C1.11083 18.5505 1.30762 18.9957 1.62825 19.3197ZM4.67007 17.5899L4.6701 17.59H7.52416V13.1578H7.52406V17.5899H4.67007ZM2.47531 13.9621C2.15023 13.6375 1.95036 13.1892 1.95036 12.6913C1.95036 11.6915 2.7562 10.8918 3.76351 10.8918C4.24767 10.8918 4.70544 11.0882 5.03753 11.4155C4.70543 11.0882 4.24762 10.8917 3.76342 10.8917C2.7561 10.8917 1.95026 11.6914 1.95026 12.6912C1.95026 13.1891 2.15017 13.6375 2.47531 13.9621ZM5.5095 12.2246L5.50953 12.2247H7.52416V11.7915C7.52416 11.5249 7.72563 11.325 7.99425 11.325C8.12959 11.325 8.24787 11.3757 8.33192 11.4602C8.24786 11.3757 8.12954 11.3249 7.99416 11.3249C7.72553 11.3249 7.52406 11.5248 7.52406 11.7914V12.2246H5.5095ZM16.422 33.6525L16.4221 33.6526ZM19.8098 35.8277C20.9218 36.6068 22.33 36.803 23.6427 36.4123C24.0699 36.2818 24.4947 36.0867 24.8522 35.8287L24.8546 35.8269L28.1793 33.5605C33.1516 30.2154 36.0882 24.6513 36.0882 18.7229V8.26455L22.3495 2.19319L22.3289 2.18299L8.59978 8.26422L8.57503 8.27242V8.89217C8.57503 9.22076 8.32322 9.46956 7.99416 9.46956C7.66511 9.46956 7.41323 9.22077 7.41323 8.89217V7.8924C7.41323 7.68445 7.53778 7.47547 7.74973 7.39031L22.0775 1.06292C22.2174 0.975202 22.3905 0.983749 22.5465 1.06039L36.8799 7.39031C37.0918 7.47547 37.2164 7.68443 37.2164 7.8924V12.1138H39.0405L39.0485 12.09C39.299 11.31 40.0476 10.7808 40.8662 10.7808C41.934 10.7808 42.7902 11.6294 42.7902 12.6912C42.7902 13.7529 41.934 14.6016 40.8662 14.6016C40.0476 14.6016 39.2987 14.0715 39.0483 13.2915L39.0405 13.2686H37.2164V17.4791H39.88L39.8879 17.4553C40.1384 16.6753 40.887 16.1461 41.7057 16.1461C42.7841 16.1461 43.5289 17.0393 43.5289 18.0898C43.5289 19.1516 42.6727 20.0002 41.6049 20.0002C40.7863 20.0002 40.0374 19.4702 39.787 18.6901L39.7792 18.6672H37.1157V18.7563C37.1157 20.129 36.9808 21.4693 36.6771 22.81L36.6658 22.8777H38.9398L38.9478 22.8539C39.1983 22.0739 39.9469 21.5447 40.7655 21.5447C41.8333 21.5447 42.6895 22.3933 42.6895 23.4551C42.6895 24.5168 41.8333 25.3654 40.7655 25.3654C39.9469 25.3654 39.198 24.8354 38.9475 24.0554L38.9398 24.0325H36.3861L36.3727 24.0853C35.1566 28.3433 32.4207 32.0637 28.7401 34.5772L25.4132 36.8451C24.9367 37.1491 24.458 37.3869 23.9101 37.557C23.3924 37.7281 22.8095 37.7956 22.2645 37.7956C21.1342 37.7956 20.0373 37.4554 19.1119 36.8092L15.7887 34.5438C12.1077 32.03 9.40602 28.3096 8.15644 24.0528L8.15531 24.0487L8.14282 23.9991H5.58914L5.58119 24.0228C5.33076 24.8029 4.58209 25.3321 3.76342 25.3321C2.69568 25.3321 1.83943 24.4835 1.83943 23.4217C1.83943 22.36 2.69568 21.5114 3.76342 21.5114C4.58208 21.5114 5.33097 22.0413 5.58141 22.8214L5.58914 22.8444H7.86315L7.85178 22.7767C7.54809 21.4359 7.41323 20.0956 7.41323 18.7229V18.6338H4.74971L4.74174 18.6576C4.49129 19.4376 3.74264 19.9669 2.92399 19.9669C1.85625 19.9669 1 19.1182 1 18.0565C1 16.9947 1.85625 16.1461 2.92399 16.1461C3.74264 16.1461 4.49152 16.6761 4.74197 17.4561L4.74971 17.4791H7.41323V13.2686H5.58913L5.58117 13.2923C5.33072 14.0724 4.58206 14.6016 3.76342 14.6016C2.69568 14.6016 1.83943 13.7529 1.83943 12.6912C1.83943 11.6294 2.69568 10.7808 3.76342 10.7808C4.58207 10.7808 5.33096 11.3108 5.58141 12.0908L5.58913 12.1138H7.41323V11.7914C7.41323 11.4628 7.66511 11.214 7.99416 11.214C8.32322 11.214 8.57503 11.4628 8.57503 11.7914V18.7229C8.57503 24.651 11.5452 30.2155 16.4845 33.5609L19.8098 35.8277ZM34.7636 9.5069C34.7256 9.28038 34.6091 9.08274 34.4088 8.96346L22.5798 3.72625C22.4899 3.68242 22.4011 3.68249 22.3377 3.68254L22.3314 3.68254L22.3252 3.68254C22.2617 3.68249 22.173 3.68242 22.0831 3.72625L10.2678 8.95653C10.0559 9.04169 9.93134 9.25058 9.93134 9.45859V18.6895C9.93134 24.1917 12.6697 29.3248 17.2328 32.4112L20.5566 34.677L20.5578 34.6779C21.6023 35.3689 23.0271 35.3689 24.0715 34.6779L27.3967 32.4111C31.9599 29.3246 34.698 24.1583 34.698 18.6895V14.3573C34.698 14.0287 34.4461 13.7799 34.1171 13.7799C33.788 13.7799 33.5361 14.0287 33.5361 14.3573V18.6895C33.5361 23.8182 31.002 28.6161 26.7348 31.4946L23.4113 33.7602C22.7424 34.2025 21.8175 34.2001 21.1851 33.7607L17.8605 31.4943C13.5933 28.6158 11.0596 23.8182 11.0596 18.6895V9.86403L22.3314 4.88097L33.6033 9.86403V11.4914C33.6033 11.82 33.8552 12.0688 34.1842 12.0688C34.5133 12.0688 34.7651 11.82 34.7651 11.4914V9.51601L34.7636 9.5069ZM22.533 3.82679L22.5329 3.8267C22.4658 3.79337 22.3986 3.79337 22.3314 3.79337C22.2643 3.79337 22.1971 3.79337 22.13 3.8267L10.3108 9.05869C10.1429 9.12534 10.0422 9.29194 10.0422 9.45859V18.6895C10.0422 22.7885 11.5721 26.6812 14.2493 29.6648C11.5721 26.6813 10.0423 22.7885 10.0423 18.6896V9.45869C10.0423 9.29204 10.143 9.12543 10.3109 9.05878L22.1301 3.82679C22.1972 3.79347 22.2644 3.79347 22.3315 3.79347C22.3987 3.79347 22.4658 3.79347 22.533 3.82679ZM34.3521 9.05869L34.3522 9.05878C34.3606 9.06379 34.3688 9.06893 34.3769 9.07427C34.3688 9.06891 34.3605 9.06371 34.3521 9.05869ZM33.792 11.7562C33.7425 11.682 33.7142 11.5914 33.7142 11.4915V9.79194L33.7141 9.79185V11.4914C33.7141 11.5914 33.7425 11.682 33.792 11.7562ZM16.2702 30.4115C16.7514 30.8312 17.2614 31.2239 17.7986 31.5863L17.7985 31.5862C17.2613 31.2238 16.7513 30.8312 16.2702 30.4115ZM34.3828 13.9674C34.3083 13.9187 34.2174 13.8909 34.1172 13.8909C33.8485 13.8909 33.6471 14.0908 33.6471 14.3574V18.6896C33.6471 23.8549 31.0952 28.687 26.7973 31.5863L23.4731 33.8524C22.768 34.3189 21.7943 34.3189 21.1228 33.8524L21.1227 33.8523C21.7942 34.3188 22.7679 34.3188 23.473 33.8523L26.7972 31.5862C31.0951 28.6869 33.647 23.8549 33.647 18.6895V14.3573C33.647 14.0907 33.8484 13.8908 34.1171 13.8908C34.2173 13.8908 34.3082 13.9186 34.3828 13.9674ZM40.8662 11.9023C41.3095 11.9023 41.662 12.2533 41.662 12.6912C41.662 13.1291 41.3095 13.4801 40.8662 13.4801C40.423 13.4801 40.0705 13.1291 40.0705 12.6912C40.0705 12.2533 40.423 11.9023 40.8662 11.9023ZM3.797 13.4801C3.35377 13.4801 3.00125 13.1291 3.00125 12.6912C3.00125 12.2533 3.35377 11.9023 3.797 11.9023C4.24025 11.9023 4.59277 12.2533 4.59277 12.6912C4.59277 13.1291 4.24025 13.4801 3.797 13.4801ZM2.95758 18.8121C2.51434 18.8121 2.16182 18.461 2.16182 18.0231C2.16182 17.5853 2.51434 17.2342 2.95758 17.2342C3.40081 17.2342 3.75334 17.5853 3.75334 18.0231C3.75334 18.461 3.40081 18.8121 2.95758 18.8121ZM3.797 24.1774C3.35377 24.1774 3.00125 23.8263 3.00125 23.3884C3.00125 22.9506 3.35377 22.5995 3.797 22.5995C4.24025 22.5995 4.59277 22.9506 4.59277 23.3884C4.59277 23.8263 4.24025 24.1774 3.797 24.1774ZM40.8662 22.6328C41.3095 22.6328 41.662 22.9839 41.662 23.4217C41.662 23.8596 41.3095 24.2107 40.8662 24.2107C40.423 24.2107 40.0705 23.8596 40.0705 23.4217C40.0705 22.9839 40.423 22.6328 40.8662 22.6328ZM41.7057 18.8121C41.2624 18.8121 40.9099 18.461 40.9099 18.0231C40.9099 17.5853 41.2624 17.2342 41.7057 17.2342C42.1489 17.2342 42.5014 17.5853 42.5014 18.0231C42.5014 18.461 42.1489 18.8121 41.7057 18.8121ZM15.5824 26.9651H29.0805C29.8442 26.9651 30.5008 26.3516 30.5008 25.5546V17.2234C30.5008 16.4635 29.8815 15.8129 29.0805 15.8129H28.2847V14.0243C28.2847 10.7631 25.6153 8.11493 22.3315 8.11493C19.0477 8.11493 16.3782 10.7631 16.3782 14.0243V15.8129H15.5824C14.8188 15.8129 14.1621 16.4265 14.1621 17.2234V21.589C14.1621 21.9175 14.414 22.1663 14.743 22.1663C15.0721 22.1663 15.3239 21.9176 15.3239 21.589V17.2234C15.3239 17.0855 15.4414 16.9677 15.5824 16.9677H29.0805C29.2215 16.9677 29.339 17.0855 29.339 17.2234V25.5879C29.339 25.7259 29.2215 25.8437 29.0805 25.8437H15.6161C15.475 25.8437 15.3575 25.7259 15.3575 25.5879V24.4882C15.3575 24.1597 15.1057 23.9109 14.7766 23.9109C14.4476 23.9109 14.1957 24.1596 14.1957 24.4882V25.5879C14.1957 26.3498 14.8169 26.9651 15.5824 26.9651ZM30.004 16.3029C29.7696 16.0702 29.4455 15.9238 29.0805 15.9238H28.174V15.9238H29.0806C29.4456 15.9238 29.7696 16.0703 30.004 16.3029ZM26.2585 9.73324C25.2206 8.79695 23.8425 8.22586 22.3316 8.22586C19.1082 8.22586 16.4891 10.8252 16.4891 14.0244V15.9238H15.5825C14.8774 15.9238 14.2731 16.4904 14.2731 17.2235V21.5891C14.2731 21.7213 14.3226 21.8371 14.4054 21.9203C14.3226 21.8371 14.273 21.7213 14.273 21.589V17.2234C14.273 16.4903 14.8773 15.9238 15.5824 15.9238H16.489V14.0243C16.489 10.8251 19.1081 8.22576 22.3315 8.22576C23.8425 8.22576 25.2206 8.7969 26.2585 9.73324ZM14.3065 25.5879C14.3065 25.9338 14.4459 26.2471 14.672 26.4755C14.446 26.2471 14.3066 25.9338 14.3066 25.588V24.4883C14.3066 24.2217 14.5081 24.0218 14.7767 24.0218C14.9121 24.0218 15.0303 24.0725 15.1144 24.157C15.0303 24.0725 14.912 24.0217 14.7766 24.0217C14.508 24.0217 14.3065 24.2216 14.3065 24.4882V25.5879ZM15.3543 25.8447C15.4216 25.9122 15.5146 25.9545 15.6161 25.9545H29.0805C29.2819 25.9545 29.4499 25.7879 29.4499 25.5879V17.2234C29.4499 17.1243 29.4086 17.0333 29.3423 16.9668C29.4086 17.0333 29.45 17.1243 29.45 17.2235V25.588C29.45 25.788 29.282 25.9546 29.0806 25.9546H15.6161C15.5146 25.9546 15.4216 25.9123 15.3543 25.8447ZM23.9487 12.4385C24.36 12.8431 24.6147 13.4042 24.6147 14.0243V15.9238H20.1155V15.9238H24.5813H24.6148V14.0244C24.6148 13.4042 24.36 12.8431 23.9487 12.4385ZM24.5039 14.0243V15.8129H20.2262V14.0243C20.2262 12.8532 21.1831 11.9024 22.3651 11.9024C23.547 11.9024 24.5039 12.8532 24.5039 14.0243ZM25.8402 10.5835C26.7219 11.4691 27.2673 12.6852 27.2673 14.0243V15.9238H25.4878V15.9238H27.2674V14.0244C27.2674 12.6852 26.722 11.4691 25.8402 10.5835ZM17.3957 15.9238H19.1752V14.0243C19.1752 12.2914 20.5855 10.8917 22.3315 10.8917C23.15 10.8917 23.8946 11.1993 24.4548 11.7045C23.8946 11.1993 23.15 10.8918 22.3316 10.8918C20.5855 10.8918 19.1753 12.2915 19.1753 14.0244V15.9238H17.3957V15.9238ZM27.1565 14.0243V15.8129H25.5986V14.0243C25.5986 12.2294 24.1379 10.7809 22.3315 10.7809C20.525 10.7809 19.0644 12.2294 19.0644 14.0243V15.8129H17.5064V14.0243C17.5064 11.387 19.6721 9.23636 22.3315 9.23636C24.9908 9.23636 27.1565 11.387 27.1565 14.0243ZM22.3317 24.2989C22.6607 24.2989 22.9126 24.0502 22.9126 23.7216V22.2021L22.9365 22.1942C23.7216 21.946 24.2557 21.2031 24.2557 20.3891C24.2557 19.3274 23.3995 18.4787 22.3317 18.4787C21.264 18.4787 20.4077 19.3274 20.4077 20.3891C20.4077 21.2031 20.9425 21.9461 21.7275 22.1944L21.7508 22.2021V23.7216C21.7508 24.0552 22.0415 24.2989 22.3317 24.2989ZM23.6199 19.1183C23.2922 18.7911 22.8374 18.5896 22.3317 18.5896C21.3244 18.5896 20.5185 19.3894 20.5185 20.3891C20.5185 20.8697 20.7165 21.3241 21.0463 21.6536C20.7166 21.3241 20.5186 20.8697 20.5186 20.3892C20.5186 19.3895 21.3245 18.5897 22.3318 18.5897C22.8374 18.5897 23.2923 18.7912 23.6199 19.1183ZM21.8616 22.1221V23.7216C21.8616 23.8497 21.9159 23.9624 21.9984 24.045C21.9159 23.9624 21.8617 23.8498 21.8617 23.7217V22.1221L21.8616 22.1221ZM21.5695 20.3891C21.5695 19.9512 21.922 19.6002 22.3653 19.6002C22.8085 19.6002 23.1611 19.9512 23.1611 20.3891C23.1611 20.8259 22.8103 21.1763 22.3687 21.1781C21.8874 21.1466 21.5695 20.7918 21.5695 20.3891ZM21.7162 21.0072C21.8754 21.1665 22.0998 21.2724 22.3653 21.2889C22.8689 21.2889 23.2719 20.889 23.2719 20.3891C23.2719 20.1548 23.1833 19.9424 23.0374 19.7829C23.1834 19.9424 23.272 20.1548 23.272 20.3892C23.272 20.8891 22.869 21.289 22.3653 21.289C22.0999 21.2725 21.8754 21.1665 21.7162 21.0072ZM40.3764 13.45C40.5173 13.5394 40.6853 13.5911 40.8663 13.5911C41.37 13.5911 41.7729 13.1911 41.7729 12.6913C41.7729 12.5038 41.7162 12.3304 41.6188 12.1868C41.7162 12.3304 41.7728 12.5037 41.7728 12.6912C41.7728 13.191 41.3699 13.591 40.8662 13.591C40.6853 13.591 40.5173 13.5393 40.3764 13.45ZM3.15297 13.3267C3.3168 13.4902 3.54422 13.591 3.797 13.591C4.30067 13.591 4.7036 13.191 4.7036 12.6912C4.7036 12.4569 4.61506 12.2445 4.46912 12.085C4.61512 12.2445 4.70369 12.4569 4.70369 12.6913C4.70369 13.1911 4.30076 13.5911 3.7971 13.5911C3.54426 13.5911 3.31681 13.4903 3.15297 13.3267ZM2.30973 18.6548C2.47384 18.8206 2.70282 18.9229 2.95758 18.9229C3.46123 18.9229 3.86417 18.523 3.86417 18.0231C3.86417 17.7888 3.77563 17.5765 3.62969 17.417C3.77568 17.5765 3.86426 17.7889 3.86426 18.0232C3.86426 18.5231 3.46133 18.923 2.95767 18.923C2.70287 18.923 2.47384 18.8206 2.30973 18.6548ZM3.15681 24.0277C3.32034 24.189 3.54618 24.2882 3.797 24.2882C4.30067 24.2882 4.7036 23.8883 4.7036 23.3884C4.7036 23.1541 4.61506 22.9418 4.46912 22.7823C4.61512 22.9418 4.70369 23.1542 4.70369 23.3885C4.70369 23.8884 4.30076 24.2883 3.7971 24.2883C3.54623 24.2883 3.32035 24.1891 3.15681 24.0277ZM40.3688 24.1757C40.5113 24.268 40.6821 24.3216 40.8663 24.3216C41.37 24.3216 41.7729 23.9217 41.7729 23.4218C41.7729 23.2343 41.7162 23.0609 41.6188 22.9174C41.7162 23.0609 41.7728 23.2343 41.7728 23.4217C41.7728 23.9216 41.3699 24.3215 40.8662 24.3215C40.682 24.3215 40.5112 24.268 40.3688 24.1757ZM41.2082 18.7771C41.3507 18.8694 41.5214 18.9229 41.7057 18.9229C42.2093 18.9229 42.6123 18.523 42.6123 18.0231C42.6123 17.8357 42.5556 17.6623 42.4582 17.5188C42.5556 17.6623 42.6124 17.8357 42.6124 18.0232C42.6124 18.5231 42.2094 18.923 41.7058 18.923C41.5215 18.923 41.3507 18.8694 41.2082 18.7771Z" fill="#FBD193"/>
</svg>
