<svg width="47" height="47" viewBox="0 0 47 47" fill="none" xmlns="http://www.w3.org/2000/svg">
<g clip-path="url(#clip0_2022_2335)">
<path d="M14.1001 15.6668V31.3334C14.1001 31.7489 14.2652 32.1474 14.559 32.4412C14.8528 32.735 15.2513 32.9001 15.6668 32.9001H31.3334C31.7489 32.9001 32.1474 32.735 32.4412 32.4412C32.735 32.1474 32.9001 31.7489 32.9001 31.3334V15.6668C32.9001 15.2513 32.735 14.8528 32.4412 14.559C32.1474 14.2652 31.7489 14.1001 31.3334 14.1001H15.6668C15.2513 14.1001 14.8528 14.2652 14.559 14.559C14.2652 14.8528 14.1001 15.2513 14.1001 15.6668ZM15.6668 15.6668H31.3334V31.3334H15.6668V15.6668Z" fill="#FBD193"/>
<path d="M24.2834 17.2334H18.8001C18.3846 17.2334 17.9861 17.3985 17.6923 17.6923C17.3985 17.9861 17.2334 18.3846 17.2334 18.8001V21.1501C17.2334 21.3578 17.3159 21.5571 17.4628 21.704C17.6097 21.8509 17.809 21.9334 18.0167 21.9334C18.2245 21.9334 18.4237 21.8509 18.5706 21.704C18.7175 21.5571 18.8001 21.3578 18.8001 21.1501V18.8001H24.2834C24.4912 18.8001 24.6904 18.7175 24.8373 18.5706C24.9842 18.4237 25.0667 18.2245 25.0667 18.0167C25.0667 17.809 24.9842 17.6097 24.8373 17.4628C24.6904 17.3159 24.4912 17.2334 24.2834 17.2334Z" fill="#FBD193"/>
<path d="M18.0167 23.5C17.809 23.5 17.6097 23.5825 17.4628 23.7294C17.3159 23.8763 17.2334 24.0756 17.2334 24.2833V26.6333C17.2334 26.8411 17.3159 27.0403 17.4628 27.1872C17.6097 27.3341 17.809 27.4167 18.0167 27.4167C18.2245 27.4167 18.4237 27.3341 18.5706 27.1872C18.7175 27.0403 18.8001 26.8411 18.8001 26.6333V24.2833C18.8001 24.0756 18.7175 23.8763 18.5706 23.7294C18.4237 23.5825 18.2245 23.5 18.0167 23.5Z" fill="#FBD193"/>
<path d="M0.783333 3.91667C0.991086 3.91667 1.19033 3.83414 1.33723 3.68723C1.48414 3.54033 1.56667 3.34109 1.56667 3.13333V1.56667H3.13333C3.34109 1.56667 3.54033 1.48414 3.68723 1.33723C3.83414 1.19033 3.91667 0.991086 3.91667 0.783333C3.91667 0.57558 3.83414 0.376337 3.68723 0.229433C3.54033 0.0825295 3.34109 0 3.13333 0L1.56667 0C1.15116 0 0.752673 0.165059 0.458866 0.458866C0.165059 0.752673 0 1.15116 0 1.56667L0 3.13333C0 3.34109 0.0825295 3.54033 0.229433 3.68723C0.376337 3.83414 0.57558 3.91667 0.783333 3.91667Z" fill="#FBD193"/>
<path d="M21.9333 1.56667C22.141 1.56667 22.3402 1.48414 22.4872 1.33723C22.6341 1.19033 22.7166 0.991086 22.7166 0.783333C22.7166 0.57558 22.6341 0.376337 22.4872 0.229433C22.3402 0.0825295 22.141 0 21.9333 0L20.3666 0C20.1588 0 19.9596 0.0825295 19.8127 0.229433C19.6658 0.376337 19.5833 0.57558 19.5833 0.783333C19.5833 0.991086 19.6658 1.19033 19.8127 1.33723C19.9596 1.48414 20.1588 1.56667 20.3666 1.56667H21.9333Z" fill="#FBD193"/>
<path d="M17.2333 1.56667C17.4411 1.56667 17.6403 1.48414 17.7872 1.33723C17.9341 1.19033 18.0166 0.991086 18.0166 0.783333C18.0166 0.57558 17.9341 0.376337 17.7872 0.229433C17.6403 0.0825295 17.4411 0 17.2333 0L15.6666 0C15.4589 0 15.2596 0.0825295 15.1127 0.229433C14.9658 0.376337 14.8833 0.57558 14.8833 0.783333C14.8833 0.991086 14.9658 1.19033 15.1127 1.33723C15.2596 1.48414 15.4589 1.56667 15.6666 1.56667H17.2333Z" fill="#FBD193"/>
<path d="M12.5333 1.56667C12.7411 1.56667 12.9403 1.48414 13.0873 1.33723C13.2342 1.19033 13.3167 0.991086 13.3167 0.783333C13.3167 0.57558 13.2342 0.376337 13.0873 0.229433C12.9403 0.0825295 12.7411 0 12.5333 0L10.9667 0C10.7589 0 10.5597 0.0825295 10.4128 0.229433C10.2659 0.376337 10.1833 0.57558 10.1833 0.783333C10.1833 0.991086 10.2659 1.19033 10.4128 1.33723C10.5597 1.48414 10.7589 1.56667 10.9667 1.56667H12.5333Z" fill="#FBD193"/>
<path d="M7.8334 1.56667C8.04115 1.56667 8.2404 1.48414 8.3873 1.33723C8.5342 1.19033 8.61673 0.991086 8.61673 0.783333C8.61673 0.57558 8.5342 0.376337 8.3873 0.229433C8.2404 0.0825295 8.04115 0 7.8334 0L6.26673 0C6.05898 0 5.85974 0.0825295 5.71283 0.229433C5.56593 0.376337 5.4834 0.57558 5.4834 0.783333C5.4834 0.991086 5.56593 1.19033 5.71283 1.33723C5.85974 1.48414 6.05898 1.56667 6.26673 1.56667H7.8334Z" fill="#FBD193"/>
<path d="M45.4333 0H43.8666C43.6588 0 43.4596 0.0825295 43.3127 0.229433C43.1658 0.376337 43.0833 0.57558 43.0833 0.783333C43.0833 0.991086 43.1658 1.19033 43.3127 1.33723C43.4596 1.48414 43.6588 1.56667 43.8666 1.56667H45.4333V3.13333C45.4333 3.34109 45.5158 3.54033 45.6627 3.68723C45.8096 3.83414 46.0088 3.91667 46.2166 3.91667C46.4243 3.91667 46.6236 3.83414 46.7705 3.68723C46.9174 3.54033 46.9999 3.34109 46.9999 3.13333V1.56667C46.9999 1.15116 46.8349 0.752673 46.5411 0.458866C46.2472 0.165059 45.8488 0 45.4333 0Z" fill="#FBD193"/>
<path d="M26.6334 1.56667C26.8412 1.56667 27.0404 1.48414 27.1873 1.33723C27.3343 1.19033 27.4168 0.991086 27.4168 0.783333C27.4168 0.57558 27.3343 0.376337 27.1873 0.229433C27.0404 0.0825295 26.8412 0 26.6334 0L25.0668 0C24.859 0 24.6598 0.0825295 24.5129 0.229433C24.366 0.376337 24.2834 0.57558 24.2834 0.783333C24.2834 0.991086 24.366 1.19033 24.5129 1.33723C24.6598 1.48414 24.859 1.56667 25.0668 1.56667H26.6334Z" fill="#FBD193"/>
<path d="M31.3334 1.56667C31.5412 1.56667 31.7404 1.48414 31.8873 1.33723C32.0342 1.19033 32.1167 0.991086 32.1167 0.783333C32.1167 0.57558 32.0342 0.376337 31.8873 0.229433C31.7404 0.0825295 31.5412 0 31.3334 0L29.7667 0C29.559 0 29.3597 0.0825295 29.2128 0.229433C29.0659 0.376337 28.9834 0.57558 28.9834 0.783333C28.9834 0.991086 29.0659 1.19033 29.2128 1.33723C29.3597 1.48414 29.559 1.56667 29.7667 1.56667H31.3334Z" fill="#FBD193"/>
<path d="M36.0333 1.56667C36.2411 1.56667 36.4403 1.48414 36.5873 1.33723C36.7342 1.19033 36.8167 0.991086 36.8167 0.783333C36.8167 0.57558 36.7342 0.376337 36.5873 0.229433C36.4403 0.0825295 36.2411 0 36.0333 0L34.4667 0C34.2589 0 34.0597 0.0825295 33.9128 0.229433C33.7659 0.376337 33.6833 0.57558 33.6833 0.783333C33.6833 0.991086 33.7659 1.19033 33.9128 1.33723C34.0597 1.48414 34.2589 1.56667 34.4667 1.56667H36.0333Z" fill="#FBD193"/>
<path d="M40.7333 1.56667C40.9411 1.56667 41.1403 1.48414 41.2872 1.33723C41.4341 1.19033 41.5166 0.991086 41.5166 0.783333C41.5166 0.57558 41.4341 0.376337 41.2872 0.229433C41.1403 0.0825295 40.9411 0 40.7333 0L39.1666 0C38.9589 0 38.7596 0.0825295 38.6127 0.229433C38.4658 0.376337 38.3833 0.57558 38.3833 0.783333C38.3833 0.991086 38.4658 1.19033 38.6127 1.33723C38.7596 1.48414 38.9589 1.56667 39.1666 1.56667H40.7333Z" fill="#FBD193"/>
<path d="M0.783333 22.7166C0.991086 22.7166 1.19033 22.6341 1.33723 22.4872C1.48414 22.3402 1.56667 22.141 1.56667 21.9333V20.3666C1.56667 20.1588 1.48414 19.9596 1.33723 19.8127C1.19033 19.6658 0.991086 19.5833 0.783333 19.5833C0.57558 19.5833 0.376337 19.6658 0.229433 19.8127C0.0825295 19.9596 0 20.1588 0 20.3666L0 21.9333C0 22.141 0.0825295 22.3402 0.229433 22.4872C0.376337 22.6341 0.57558 22.7166 0.783333 22.7166Z" fill="#FBD193"/>
<path d="M0.783333 18.0166C0.991086 18.0166 1.19033 17.9341 1.33723 17.7872C1.48414 17.6403 1.56667 17.4411 1.56667 17.2333V15.6666C1.56667 15.4589 1.48414 15.2596 1.33723 15.1127C1.19033 14.9658 0.991086 14.8833 0.783333 14.8833C0.57558 14.8833 0.376337 14.9658 0.229433 15.1127C0.0825295 15.2596 0 15.4589 0 15.6666L0 17.2333C0 17.4411 0.0825295 17.6403 0.229433 17.7872C0.376337 17.9341 0.57558 18.0166 0.783333 18.0166Z" fill="#FBD193"/>
<path d="M0.783333 13.3167C0.991086 13.3167 1.19033 13.2342 1.33723 13.0873C1.48414 12.9403 1.56667 12.7411 1.56667 12.5333V10.9667C1.56667 10.7589 1.48414 10.5597 1.33723 10.4128C1.19033 10.2659 0.991086 10.1833 0.783333 10.1833C0.57558 10.1833 0.376337 10.2659 0.229433 10.4128C0.0825295 10.5597 0 10.7589 0 10.9667L0 12.5333C0 12.7411 0.0825295 12.9403 0.229433 13.0873C0.376337 13.2342 0.57558 13.3167 0.783333 13.3167Z" fill="#FBD193"/>
<path d="M0.783333 8.61673C0.991086 8.61673 1.19033 8.5342 1.33723 8.3873C1.48414 8.2404 1.56667 8.04115 1.56667 7.8334V6.26673C1.56667 6.05898 1.48414 5.85974 1.33723 5.71283C1.19033 5.56593 0.991086 5.4834 0.783333 5.4834C0.57558 5.4834 0.376337 5.56593 0.229433 5.71283C0.0825295 5.85974 0 6.05898 0 6.26673L0 7.8334C0 8.04115 0.0825295 8.2404 0.229433 8.3873C0.376337 8.5342 0.57558 8.61673 0.783333 8.61673Z" fill="#FBD193"/>
<path d="M0.783333 27.4168C0.991086 27.4168 1.19033 27.3343 1.33723 27.1873C1.48414 27.0404 1.56667 26.8412 1.56667 26.6334V25.0668C1.56667 24.859 1.48414 24.6598 1.33723 24.5129C1.19033 24.366 0.991086 24.2834 0.783333 24.2834C0.57558 24.2834 0.376337 24.366 0.229433 24.5129C0.0825295 24.6598 0 24.859 0 25.0668L0 26.6334C0 26.8412 0.0825295 27.0404 0.229433 27.1873C0.376337 27.3343 0.57558 27.4168 0.783333 27.4168Z" fill="#FBD193"/>
<path d="M0.783333 32.1167C0.991086 32.1167 1.19033 32.0342 1.33723 31.8873C1.48414 31.7404 1.56667 31.5412 1.56667 31.3334V29.7667C1.56667 29.559 1.48414 29.3597 1.33723 29.2128C1.19033 29.0659 0.991086 28.9834 0.783333 28.9834C0.57558 28.9834 0.376337 29.0659 0.229433 29.2128C0.0825295 29.3597 0 29.559 0 29.7667L0 31.3334C0 31.5412 0.0825295 31.7404 0.229433 31.8873C0.376337 32.0342 0.57558 32.1167 0.783333 32.1167Z" fill="#FBD193"/>
<path d="M0.783333 36.8167C0.991086 36.8167 1.19033 36.7342 1.33723 36.5873C1.48414 36.4403 1.56667 36.2411 1.56667 36.0333V34.4667C1.56667 34.2589 1.48414 34.0597 1.33723 33.9128C1.19033 33.7659 0.991086 33.6833 0.783333 33.6833C0.57558 33.6833 0.376337 33.7659 0.229433 33.9128C0.0825295 34.0597 0 34.2589 0 34.4667L0 36.0333C0 36.2411 0.0825295 36.4403 0.229433 36.5873C0.376337 36.7342 0.57558 36.8167 0.783333 36.8167Z" fill="#FBD193"/>
<path d="M0.783333 41.5166C0.991086 41.5166 1.19033 41.4341 1.33723 41.2872C1.48414 41.1403 1.56667 40.9411 1.56667 40.7333V39.1666C1.56667 38.9589 1.48414 38.7596 1.33723 38.6127C1.19033 38.4658 0.991086 38.3833 0.783333 38.3833C0.57558 38.3833 0.376337 38.4658 0.229433 38.6127C0.0825295 38.7596 0 38.9589 0 39.1666L0 40.7333C0 40.9411 0.0825295 41.1403 0.229433 41.2872C0.376337 41.4341 0.57558 41.5166 0.783333 41.5166Z" fill="#FBD193"/>
<path d="M46.2167 19.5833C46.0089 19.5833 45.8097 19.6658 45.6628 19.8127C45.5159 19.9596 45.4333 20.1588 45.4333 20.3666V21.9333C45.4333 22.141 45.5159 22.3402 45.6628 22.4872C45.8097 22.6341 46.0089 22.7166 46.2167 22.7166C46.4244 22.7166 46.6237 22.6341 46.7706 22.4872C46.9175 22.3402 47 22.141 47 21.9333V20.3666C47 20.1588 46.9175 19.9596 46.7706 19.8127C46.6237 19.6658 46.4244 19.5833 46.2167 19.5833Z" fill="#FBD193"/>
<path d="M46.2167 14.8833C46.0089 14.8833 45.8097 14.9658 45.6628 15.1127C45.5159 15.2596 45.4333 15.4589 45.4333 15.6666V17.2333C45.4333 17.4411 45.5159 17.6403 45.6628 17.7872C45.8097 17.9341 46.0089 18.0166 46.2167 18.0166C46.4244 18.0166 46.6237 17.9341 46.7706 17.7872C46.9175 17.6403 47 17.4411 47 17.2333V15.6666C47 15.4589 46.9175 15.2596 46.7706 15.1127C46.6237 14.9658 46.4244 14.8833 46.2167 14.8833Z" fill="#FBD193"/>
<path d="M46.2167 10.1833C46.0089 10.1833 45.8097 10.2659 45.6628 10.4128C45.5159 10.5597 45.4333 10.7589 45.4333 10.9667V12.5333C45.4333 12.7411 45.5159 12.9403 45.6628 13.0873C45.8097 13.2342 46.0089 13.3167 46.2167 13.3167C46.4244 13.3167 46.6237 13.2342 46.7706 13.0873C46.9175 12.9403 47 12.7411 47 12.5333V10.9667C47 10.7589 46.9175 10.5597 46.7706 10.4128C46.6237 10.2659 46.4244 10.1833 46.2167 10.1833Z" fill="#FBD193"/>
<path d="M46.2167 5.4834C46.0089 5.4834 45.8097 5.56593 45.6628 5.71283C45.5159 5.85974 45.4333 6.05898 45.4333 6.26673V7.8334C45.4333 8.04115 45.5159 8.2404 45.6628 8.3873C45.8097 8.5342 46.0089 8.61673 46.2167 8.61673C46.4244 8.61673 46.6237 8.5342 46.7706 8.3873C46.9175 8.2404 47 8.04115 47 7.8334V6.26673C47 6.05898 46.9175 5.85974 46.7706 5.71283C46.6237 5.56593 46.4244 5.4834 46.2167 5.4834Z" fill="#FBD193"/>
<path d="M46.2167 24.2834C46.0089 24.2834 45.8097 24.366 45.6628 24.5129C45.5159 24.6598 45.4333 24.859 45.4333 25.0668V26.6334C45.4333 26.8412 45.5159 27.0404 45.6628 27.1873C45.8097 27.3343 46.0089 27.4168 46.2167 27.4168C46.4244 27.4168 46.6237 27.3343 46.7706 27.1873C46.9175 27.0404 47 26.8412 47 26.6334V25.0668C47 24.859 46.9175 24.6598 46.7706 24.5129C46.6237 24.366 46.4244 24.2834 46.2167 24.2834Z" fill="#FBD193"/>
<path d="M46.2167 28.9834C46.0089 28.9834 45.8097 29.0659 45.6628 29.2128C45.5159 29.3597 45.4333 29.559 45.4333 29.7667V31.3334C45.4333 31.5412 45.5159 31.7404 45.6628 31.8873C45.8097 32.0342 46.0089 32.1167 46.2167 32.1167C46.4244 32.1167 46.6237 32.0342 46.7706 31.8873C46.9175 31.7404 47 31.5412 47 31.3334V29.7667C47 29.559 46.9175 29.3597 46.7706 29.2128C46.6237 29.0659 46.4244 28.9834 46.2167 28.9834Z" fill="#FBD193"/>
<path d="M46.2167 33.6833C46.0089 33.6833 45.8097 33.7659 45.6628 33.9128C45.5159 34.0597 45.4333 34.2589 45.4333 34.4667V36.0333C45.4333 36.2411 45.5159 36.4403 45.6628 36.5873C45.8097 36.7342 46.0089 36.8167 46.2167 36.8167C46.4244 36.8167 46.6237 36.7342 46.7706 36.5873C46.9175 36.4403 47 36.2411 47 36.0333V34.4667C47 34.2589 46.9175 34.0597 46.7706 33.9128C46.6237 33.7659 46.4244 33.6833 46.2167 33.6833Z" fill="#FBD193"/>
<path d="M46.2167 38.3833C46.0089 38.3833 45.8097 38.4658 45.6628 38.6127C45.5159 38.7596 45.4333 38.9589 45.4333 39.1666V40.7333C45.4333 40.9411 45.5159 41.1403 45.6628 41.2872C45.8097 41.4341 46.0089 41.5166 46.2167 41.5166C46.4244 41.5166 46.6237 41.4341 46.7706 41.2872C46.9175 41.1403 47 40.9411 47 40.7333V39.1666C47 38.9589 46.9175 38.7596 46.7706 38.6127C46.6237 38.4658 46.4244 38.3833 46.2167 38.3833Z" fill="#FBD193"/>
<path d="M1.56667 46.9999H3.13333C3.34109 46.9999 3.54033 46.9174 3.68723 46.7705C3.83414 46.6236 3.91667 46.4243 3.91667 46.2166C3.91667 46.0088 3.83414 45.8096 3.68723 45.6627C3.54033 45.5158 3.34109 45.4333 3.13333 45.4333H1.56667V43.8666C1.56667 43.6588 1.48414 43.4596 1.33723 43.3127C1.19033 43.1658 0.991086 43.0833 0.783333 43.0833C0.57558 43.0833 0.376337 43.1658 0.229433 43.3127C0.0825295 43.4596 0 43.6588 0 43.8666L0 45.4333C0 45.8488 0.165059 46.2472 0.458866 46.5411C0.752673 46.8349 1.15116 46.9999 1.56667 46.9999Z" fill="#FBD193"/>
<path d="M20.3666 45.4333C20.1588 45.4333 19.9596 45.5159 19.8127 45.6628C19.6658 45.8097 19.5833 46.0089 19.5833 46.2167C19.5833 46.4244 19.6658 46.6237 19.8127 46.7706C19.9596 46.9175 20.1588 47 20.3666 47H21.9333C22.141 47 22.3402 46.9175 22.4872 46.7706C22.6341 46.6237 22.7166 46.4244 22.7166 46.2167C22.7166 46.0089 22.6341 45.8097 22.4872 45.6628C22.3402 45.5159 22.141 45.4333 21.9333 45.4333H20.3666Z" fill="#FBD193"/>
<path d="M15.6666 45.4333C15.4589 45.4333 15.2596 45.5159 15.1127 45.6628C14.9658 45.8097 14.8833 46.0089 14.8833 46.2167C14.8833 46.4244 14.9658 46.6237 15.1127 46.7706C15.2596 46.9175 15.4589 47 15.6666 47H17.2333C17.4411 47 17.6403 46.9175 17.7872 46.7706C17.9341 46.6237 18.0166 46.4244 18.0166 46.2167C18.0166 46.0089 17.9341 45.8097 17.7872 45.6628C17.6403 45.5159 17.4411 45.4333 17.2333 45.4333H15.6666Z" fill="#FBD193"/>
<path d="M10.9667 45.4333C10.7589 45.4333 10.5597 45.5159 10.4128 45.6628C10.2659 45.8097 10.1833 46.0089 10.1833 46.2167C10.1833 46.4244 10.2659 46.6237 10.4128 46.7706C10.5597 46.9175 10.7589 47 10.9667 47H12.5333C12.7411 47 12.9403 46.9175 13.0873 46.7706C13.2342 46.6237 13.3167 46.4244 13.3167 46.2167C13.3167 46.0089 13.2342 45.8097 13.0873 45.6628C12.9403 45.5159 12.7411 45.4333 12.5333 45.4333H10.9667Z" fill="#FBD193"/>
<path d="M6.26673 45.4333C6.05898 45.4333 5.85974 45.5159 5.71283 45.6628C5.56593 45.8097 5.4834 46.0089 5.4834 46.2167C5.4834 46.4244 5.56593 46.6237 5.71283 46.7706C5.85974 46.9175 6.05898 47 6.26673 47H7.8334C8.04115 47 8.2404 46.9175 8.3873 46.7706C8.5342 46.6237 8.61673 46.4244 8.61673 46.2167C8.61673 46.0089 8.5342 45.8097 8.3873 45.6628C8.2404 45.5159 8.04115 45.4333 7.8334 45.4333H6.26673Z" fill="#FBD193"/>
<path d="M46.2166 43.0833C46.0088 43.0833 45.8096 43.1658 45.6627 43.3127C45.5158 43.4596 45.4333 43.6588 45.4333 43.8666V45.4333H43.8666C43.6588 45.4333 43.4596 45.5158 43.3127 45.6627C43.1658 45.8096 43.0833 46.0088 43.0833 46.2166C43.0833 46.4243 43.1658 46.6236 43.3127 46.7705C43.4596 46.9174 43.6588 46.9999 43.8666 46.9999H45.4333C45.8488 46.9999 46.2472 46.8349 46.5411 46.5411C46.8349 46.2472 46.9999 45.8488 46.9999 45.4333V43.8666C46.9999 43.6588 46.9174 43.4596 46.7705 43.3127C46.6236 43.1658 46.4243 43.0833 46.2166 43.0833Z" fill="#FBD193"/>
<path d="M25.0668 45.4333C24.859 45.4333 24.6598 45.5159 24.5129 45.6628C24.366 45.8097 24.2834 46.0089 24.2834 46.2167C24.2834 46.4244 24.366 46.6237 24.5129 46.7706C24.6598 46.9175 24.859 47 25.0668 47H26.6334C26.8412 47 27.0404 46.9175 27.1873 46.7706C27.3343 46.6237 27.4168 46.4244 27.4168 46.2167C27.4168 46.0089 27.3343 45.8097 27.1873 45.6628C27.0404 45.5159 26.8412 45.4333 26.6334 45.4333H25.0668Z" fill="#FBD193"/>
<path d="M29.7667 45.4333C29.559 45.4333 29.3597 45.5159 29.2128 45.6628C29.0659 45.8097 28.9834 46.0089 28.9834 46.2167C28.9834 46.4244 29.0659 46.6237 29.2128 46.7706C29.3597 46.9175 29.559 47 29.7667 47H31.3334C31.5412 47 31.7404 46.9175 31.8873 46.7706C32.0342 46.6237 32.1167 46.4244 32.1167 46.2167C32.1167 46.0089 32.0342 45.8097 31.8873 45.6628C31.7404 45.5159 31.5412 45.4333 31.3334 45.4333H29.7667Z" fill="#FBD193"/>
<path d="M36.0333 47C36.2411 47 36.4403 46.9175 36.5873 46.7706C36.7342 46.6237 36.8167 46.4244 36.8167 46.2167C36.8167 46.0089 36.7342 45.8097 36.5873 45.6628C36.4403 45.5159 36.2411 45.4333 36.0333 45.4333H34.4667C34.2589 45.4333 34.0597 45.5159 33.9128 45.6628C33.7659 45.8097 33.6833 46.0089 33.6833 46.2167C33.6833 46.4244 33.7659 46.6237 33.9128 46.7706C34.0597 46.9175 34.2589 47 34.4667 47H36.0333Z" fill="#FBD193"/>
<path d="M40.7333 45.4333H39.1666C38.9589 45.4333 38.7596 45.5159 38.6127 45.6628C38.4658 45.8097 38.3833 46.0089 38.3833 46.2167C38.3833 46.4244 38.4658 46.6237 38.6127 46.7706C38.7596 46.9175 38.9589 47 39.1666 47H40.7333C40.9411 47 41.1403 46.9175 41.2872 46.7706C41.4341 46.6237 41.5166 46.4244 41.5166 46.2167C41.5166 46.0089 41.4341 45.8097 41.2872 45.6628C41.1403 45.5159 40.9411 45.4333 40.7333 45.4333Z" fill="#FBD193"/>
<path d="M4.69995 5.48328V9.39995C4.69995 9.6077 4.78248 9.80695 4.92938 9.95385C5.07629 10.1008 5.27553 10.1833 5.48328 10.1833C5.69104 10.1833 5.89028 10.1008 6.03718 9.95385C6.18409 9.80695 6.26662 9.6077 6.26662 9.39995V7.37425L11.9795 13.0871C12.1272 13.2298 12.3251 13.3087 12.5305 13.307C12.7359 13.3052 12.9323 13.2228 13.0776 13.0776C13.2228 12.9323 13.3052 12.7359 13.307 12.5305C13.3087 12.3251 13.2298 12.1272 13.0871 11.9795L7.37425 6.26662H9.39995C9.6077 6.26662 9.80695 6.18409 9.95385 6.03718C10.1008 5.89028 10.1833 5.69104 10.1833 5.48328C10.1833 5.27553 10.1008 5.07629 9.95385 4.92938C9.80695 4.78248 9.6077 4.69995 9.39995 4.69995H5.48328C5.27553 4.69995 5.07629 4.78248 4.92938 4.92938C4.78248 5.07629 4.69995 5.27553 4.69995 5.48328Z" fill="#FBD193"/>
<path d="M4.69995 41.5166C4.69995 41.7243 4.78248 41.9236 4.92938 42.0705C5.07629 42.2174 5.27553 42.2999 5.48328 42.2999H9.39995C9.6077 42.2999 9.80695 42.2174 9.95385 42.0705C10.1008 41.9236 10.1833 41.7243 10.1833 41.5166C10.1833 41.3088 10.1008 41.1096 9.95385 40.9627C9.80695 40.8158 9.6077 40.7332 9.39995 40.7332H7.37425L13.0871 35.0204C13.2298 34.8727 13.3087 34.6748 13.307 34.4694C13.3052 34.264 13.2228 34.0675 13.0776 33.9223C12.9323 33.7771 12.7359 33.6947 12.5305 33.6929C12.3251 33.6911 12.1272 33.7701 11.9795 33.9128L6.26662 39.6256V37.5999C6.26662 37.3922 6.18409 37.1929 6.03718 37.046C5.89028 36.8991 5.69104 36.8166 5.48328 36.8166C5.27553 36.8166 5.07629 36.8991 4.92938 37.046C4.78248 37.1929 4.69995 37.3922 4.69995 37.5999V41.5166Z" fill="#FBD193"/>
<path d="M42.2999 41.5166V37.5999C42.2999 37.3922 42.2174 37.1929 42.0705 37.046C41.9236 36.8991 41.7243 36.8166 41.5166 36.8166C41.3088 36.8166 41.1096 36.8991 40.9627 37.046C40.8158 37.1929 40.7332 37.3922 40.7332 37.5999V39.6256L35.0204 33.9128C34.8727 33.7701 34.6748 33.6911 34.4694 33.6929C34.264 33.6947 34.0675 33.7771 33.9223 33.9223C33.7771 34.0675 33.6947 34.264 33.6929 34.4694C33.6911 34.6748 33.7701 34.8727 33.9128 35.0204L39.6256 40.7332H37.5999C37.3922 40.7332 37.1929 40.8158 37.046 40.9627C36.8991 41.1096 36.8166 41.3088 36.8166 41.5166C36.8166 41.7243 36.8991 41.9236 37.046 42.0705C37.1929 42.2174 37.3922 42.2999 37.5999 42.2999H41.5166C41.7243 42.2999 41.9236 42.2174 42.0705 42.0705C42.2174 41.9236 42.2999 41.7243 42.2999 41.5166Z" fill="#FBD193"/>
<path d="M42.3001 5.48328C42.3001 5.27553 42.2176 5.07629 42.0707 4.92938C41.9238 4.78248 41.7245 4.69995 41.5168 4.69995H37.6001C37.3924 4.69995 37.1931 4.78248 37.0462 4.92938C36.8993 5.07629 36.8168 5.27553 36.8168 5.48328C36.8168 5.69104 36.8993 5.89028 37.0462 6.03718C37.1931 6.18409 37.3924 6.26662 37.6001 6.26662H39.6258L33.913 11.9795C33.8382 12.0517 33.7785 12.1382 33.7374 12.2337C33.6964 12.3293 33.6748 12.4321 33.6739 12.5361C33.673 12.6401 33.6928 12.7433 33.7322 12.8395C33.7715 12.9358 33.8297 13.0233 33.9033 13.0968C33.9768 13.1704 34.0643 13.2285 34.1605 13.2679C34.2568 13.3073 34.36 13.3271 34.464 13.3262C34.568 13.3253 34.6708 13.3037 34.7663 13.2626C34.8619 13.2216 34.9483 13.1619 35.0206 13.0871L40.7335 7.37425V9.39995C40.7335 9.6077 40.816 9.80695 40.9629 9.95385C41.1098 10.1008 41.309 10.1833 41.5168 10.1833C41.7245 10.1833 41.9238 10.1008 42.0707 9.95385C42.2176 9.80695 42.3001 9.6077 42.3001 9.39995V5.48328Z" fill="#FBD193"/>
</g>
<defs>
<clipPath id="clip0_2022_2335">
<rect width="47" height="47" fill="white"/>
</clipPath>
</defs>
</svg>
