<svg width="35" height="35" viewBox="0 0 35 35" fill="none" xmlns="http://www.w3.org/2000/svg">
<rect width="35" height="35" fill="white" fill-opacity="0.05"/>
<g clip-path="url(#clip0_68_662)">
<path d="M13.9475 15.2348V23.5298H11.1875V15.2348H13.9475ZM14.1275 12.6698C14.1275 13.0798 13.9825 13.4198 13.6925 13.6898C13.4025 13.9598 13.0275 14.0948 12.5675 14.0948H12.5525C12.0925 14.0948 11.7225 13.9598 11.4425 13.6898C11.1625 13.4198 11.0225 13.0798 11.0225 12.6698C11.0225 12.2598 11.1675 11.9198 11.4575 11.6498C11.7475 11.3798 12.1225 11.2448 12.5825 11.2448C13.0425 11.2448 13.4125 11.3798 13.6925 11.6498C13.9725 11.9198 14.1175 12.2598 14.1275 12.6698ZM23.8775 18.7748V23.5298H21.1325V19.0898C21.1325 18.4998 21.0175 18.0398 20.7875 17.7098C20.5575 17.3798 20.2025 17.2148 19.7225 17.2148C19.3725 17.2148 19.0825 17.3098 18.8525 17.4998C18.6225 17.6898 18.4425 17.9298 18.3125 18.2198C18.2525 18.3898 18.2225 18.6148 18.2225 18.8948V23.5298H15.4625C15.4725 21.2998 15.4775 19.4948 15.4775 18.1148V15.6398L15.4625 15.2348H18.2225V16.4348H18.2075C18.3175 16.2548 18.4325 16.0998 18.5525 15.9698C18.6725 15.8398 18.8275 15.6948 19.0175 15.5348C19.2075 15.3748 19.4525 15.2548 19.7525 15.1748C20.0525 15.0948 20.3725 15.0498 20.7125 15.0398C21.6625 15.0398 22.4275 15.3548 23.0075 15.9848C23.5875 16.6148 23.8775 17.5448 23.8775 18.7748Z" fill="#FBD193"/>
</g>
<defs>
<clipPath id="clip0_68_662">
<rect width="13" height="13" fill="white" transform="matrix(1 0 0 -1 11 24)"/>
</clipPath>
</defs>
</svg>
