<svg width="35" height="35" viewBox="0 0 35 35" fill="none" xmlns="http://www.w3.org/2000/svg">
<rect width="35" height="35" fill="white" fill-opacity="0.05"/>
<g clip-path="url(#clip0_68_661)">
<path d="M10 24.9953C10.606 24.3023 11.1353 23.6934 11.6682 23.0878C13.0064 21.5685 14.3468 20.0515 15.6893 18.5367C15.8463 18.3606 15.7956 18.2532 15.6844 18.0956C13.8966 15.5575 12.1118 13.0177 10.3301 10.4763C10.24 10.3476 10.1527 10.2162 10.0324 10.0386C10.19 10.0242 10.2886 10.0083 10.3864 10.0077C11.6534 10.0077 12.9203 10.0118 14.1873 10.0015C14.4146 10.0015 14.5462 10.0751 14.6729 10.2568C15.8334 11.9206 16.9999 13.5824 18.1725 15.2421C18.2246 15.3157 18.2823 15.3859 18.3577 15.4843C19.2326 14.4907 20.0934 13.5149 20.9528 12.5378C21.6172 11.7809 22.2845 11.024 22.9398 10.2671C23.1059 10.0737 23.2847 9.98633 23.5451 10.0056C23.8337 10.0262 24.1251 10.0104 24.5305 10.0104L18.9524 16.3534L25 24.9636C24.8283 24.9781 24.7185 24.9939 24.6108 24.9946C23.3565 24.9946 22.1015 24.9891 20.8465 25.0001C20.6037 25.0001 20.4692 24.9134 20.3369 24.7248C19.123 22.9816 17.903 21.2444 16.6768 19.5131C16.6121 19.4209 16.5431 19.3315 16.4509 19.2062C16.113 19.5854 15.7907 19.9418 15.4732 20.3072C14.1514 21.8064 12.8291 23.3073 11.5063 24.8102C11.4156 24.9081 11.2919 24.9708 11.1579 24.987C10.8101 25.0104 10.4596 24.9953 10 24.9953ZM23.1488 24.0422C23.0221 23.8585 22.9468 23.7457 22.8673 23.6356C21.568 21.8139 20.2684 19.9925 18.9686 18.1713C17.3192 15.8648 15.667 13.5601 14.012 11.2573C13.9416 11.1609 13.8339 11.0288 13.7389 11.0254C13.147 11.004 12.5543 11.0144 11.8821 11.0144C11.9849 11.1699 12.0412 11.2655 12.1038 11.3536C13.4562 13.2495 14.8093 15.1464 16.163 17.0442C17.7711 19.2962 19.3815 21.5469 20.9943 23.7966C21.0647 23.8984 21.1949 24.0271 21.3019 24.0312C21.8847 24.0539 22.4689 24.0422 23.1488 24.0422Z" fill="#FBD193"/>
</g>
<defs>
<clipPath id="clip0_68_661">
<rect width="15" height="15" fill="white" transform="translate(10 10)"/>
</clipPath>
</defs>
</svg>
