<svg width="35" height="35" viewBox="0 0 35 35" fill="none" xmlns="http://www.w3.org/2000/svg">
<rect width="35" height="35" fill="white" fill-opacity="0.05"/>
<g clip-path="url(#clip0_68_664)">
<path d="M24.9573 12.1377L22.6936 22.7455C22.5227 23.494 22.0775 23.6803 21.4447 23.3279L17.9954 20.8023L16.3313 22.393C16.147 22.5762 15.9933 22.729 15.638 22.729L15.8861 19.2386L22.2784 13.499C22.5565 13.253 22.2179 13.1162 21.8466 13.3627L13.9439 18.3075L10.5418 17.2491C9.80189 17.0197 9.7885 16.5139 10.6961 16.1609L24.003 11.0665C24.6192 10.8371 25.1582 11.2023 24.9573 12.1377Z" fill="#FBD193"/>
</g>
<defs>
<clipPath id="clip0_68_664">
<rect width="15" height="13" fill="white" transform="matrix(1 0 0 -1 10 24)"/>
</clipPath>
</defs>
</svg>
