<svg width="30" height="30" viewBox="0 0 30 30" fill="none" xmlns="http://www.w3.org/2000/svg">
<rect x="0.5" y="0.5" width="29" height="29" fill="black" stroke="#838382"/>
<g clip-path="url(#clip0_2029_760)">
<path fill-rule="evenodd" clip-rule="evenodd" d="M12.4548 16.2006L15.0018 17.9421L17.457 16.2483L22.9605 21.678C22.8156 21.7248 22.6608 21.75 22.4997 21.75H7.5003C7.3023 21.75 7.1133 21.7113 6.9396 21.642L12.4548 16.2006V16.2006ZM24 11.7384V20.2497C24 20.472 23.9514 20.6826 23.865 20.8725L18.4704 15.5499L24 11.7384ZM6 11.7861L11.4378 15.5049L6.0954 20.7771C6.03213 20.6085 5.99981 20.4298 6 20.2497V11.787V11.7861ZM22.4997 8.25C23.3277 8.25 24 8.9214 24 9.7503V10.2777L14.9982 16.4832L6 10.329V9.7503C6 8.9223 6.6714 8.25 7.5003 8.25H22.4997V8.25Z" fill="#FBD193"/>
</g>
<defs>
<clipPath id="clip0_2029_760">
<rect width="18" height="18" fill="white" transform="translate(6 6)"/>
</clipPath>
</defs>
</svg>
