<svg width="30" height="30" viewBox="0 0 30 30" fill="none" xmlns="http://www.w3.org/2000/svg">
<rect x="0.5" y="0.5" width="29" height="29" fill="black" stroke="#838382"/>
<g clip-path="url(#clip0_2029_759)">
<path fill-rule="evenodd" clip-rule="evenodd" d="M13.0717 12.7268H15.8572V14.1143C16.2585 13.3163 17.2875 12.5993 18.8333 12.5993C21.7965 12.5993 22.5 14.1878 22.5 17.1023V22.5H19.5V17.766C19.5 16.1062 19.0988 15.1703 18.0773 15.1703C16.6605 15.1703 16.0717 16.179 16.0717 17.7653V22.5H13.0717V12.7268V12.7268ZM7.9275 22.3725H10.9275V12.5993H7.9275V22.3725V22.3725ZM11.3573 9.4125C11.3574 9.66396 11.3075 9.91293 11.2105 10.1449C11.1136 10.377 10.9715 10.5874 10.7925 10.764C10.4298 11.1245 9.93886 11.3262 9.4275 11.325C8.91704 11.3247 8.42723 11.1234 8.064 10.7648C7.88566 10.5875 7.74404 10.3769 7.64726 10.1448C7.55048 9.91278 7.50043 9.66392 7.5 9.4125C7.5 8.90475 7.7025 8.41875 8.06475 8.06025C8.42766 7.70112 8.91768 7.49978 9.42825 7.5C9.93975 7.5 10.4302 7.70175 10.7925 8.06025C11.154 8.41875 11.3573 8.90475 11.3573 9.4125Z" fill="#FBD193"/>
</g>
<defs>
<clipPath id="clip0_2029_759">
<rect width="18" height="18" fill="white" transform="translate(6 6)"/>
</clipPath>
</defs>
</svg>
